<svg xmlns="http://www.w3.org/2000/svg" viewBox="0 0 1431.0 544.0" role="img" aria-label="Francielly Costa"><title>Francielly Costa</title><path d="M212.23,543.80C212.13,543.67 212.03,521.30 212.03,494.03C212.00,448.00 211.57,351.57 211.07,278.33L210.83,247.17L190.50,246.97C178.83,246.83 168.90,246.57 167.17,246.37C165.53,246.17 163.20,245.90 162.00,245.80C159.93,245.67 157.23,245.30 148.83,244.13C146.80,243.83 144.30,243.40 143.27,243.13C142.20,242.87 140.97,242.67 140.47,242.67C140.00,242.67 138.83,242.47 137.90,242.20C136.93,241.97 134.97,241.50 133.50,241.20C132.03,240.90 130.13,240.43 129.30,240.17C128.43,239.90 127.50,239.67 127.20,239.67C126.87,239.67 125.93,239.47 125.07,239.20C124.20,238.93 122.53,238.47 121.33,238.17C119.27,237.60 114.23,236.03 112.17,235.30C111.63,235.10 110.70,234.80 110.17,234.67C108.37,234.17 103.60,232.43 100.83,231.30C100.47,231.17 98.80,230.50 97.17,229.83C95.53,229.17 93.67,228.40 93.07,228.13C92.50,227.87 91.50,227.47 90.93,227.20C86.23,225.20 73.97,218.90 68.73,215.83C66.83,214.70 64.13,213.10 63.37,212.60C62.90,212.27 62.30,211.90 62.03,211.77C60.43,211.00 49.83,203.50 44.70,199.50C42.17,197.53 41.63,197.10 37.63,193.67C27.53,184.97 18.63,175.60 12.67,167.33C11.13,165.23 8.30,161.33 6.37,158.67C4.43,156.00 2.37,153.07 1.73,152.17C1.10,151.27 0.47,150.47 0.30,150.40C0.13,150.33 0.00,149.93 0.00,149.50C0.00,148.80 0.27,148.67 2.60,148.20C4.00,147.90 5.83,147.50 6.67,147.30C7.50,147.07 8.63,146.83 9.17,146.77C9.70,146.70 11.13,146.43 12.33,146.17C13.53,145.93 15.67,145.47 17.07,145.20C18.50,144.90 20.83,144.43 22.27,144.13C29.40,142.67 31.97,142.17 35.00,141.63C36.70,141.37 39.63,140.83 43.33,140.17C46.67,139.57 50.57,138.93 52.00,138.77C52.63,138.70 54.53,138.43 56.17,138.17C65.37,136.73 77.77,135.43 94.17,134.17C101.90,133.57 133.50,133.47 139.33,134.03C141.27,134.20 145.10,134.47 147.90,134.63C150.70,134.80 153.13,135.03 153.33,135.17C153.53,135.30 155.23,135.50 157.10,135.67C158.97,135.80 161.63,136.10 163.00,136.30C164.37,136.53 167.00,136.93 168.83,137.20C172.07,137.70 175.20,138.23 179.00,139.00C180.00,139.20 181.37,139.43 182.00,139.53C182.63,139.63 183.93,139.90 184.83,140.17C185.73,140.40 187.70,140.87 189.17,141.17C190.63,141.50 192.30,141.90 192.83,142.07C193.37,142.27 194.43,142.53 195.17,142.70C197.33,143.13 199.43,143.70 200.60,144.20C201.20,144.47 202.03,144.67 202.43,144.67C202.83,144.70 203.53,144.90 204.00,145.17C204.47,145.43 205.20,145.67 205.67,145.67C206.13,145.67 206.80,145.90 207.13,146.17C207.50,146.43 208.17,146.67 208.63,146.67C209.10,146.67 209.80,146.90 210.13,147.17C211.00,147.83 212.53,147.80 212.80,147.13C212.90,146.83 213.00,146.07 213.00,145.40C213.00,144.73 213.23,142.97 213.53,141.50C214.53,136.37 215.03,133.83 215.37,132.50C215.57,131.77 215.83,130.57 215.97,129.83C216.23,128.47 216.70,126.67 217.47,124.00C217.73,123.17 218.17,121.60 218.50,120.50C218.83,119.40 219.23,118.13 219.43,117.67C219.60,117.20 219.87,116.37 220.03,115.83C220.57,113.83 222.60,108.30 224.33,104.17C228.70,93.83 234.50,83.40 241.07,74.17C241.60,73.43 242.27,72.47 242.57,72.00C243.13,71.20 245.63,68.00 248.47,64.50C253.73,58.03 265.17,46.60 270.33,42.67C271.17,42.03 272.03,41.30 272.30,41.07C274.80,38.67 290.50,27.97 293.50,26.63C293.87,26.47 294.47,26.13 294.83,25.93C296.73,24.70 298.47,23.77 303.23,21.37C311.43,17.27 313.83,16.23 324.50,12.10C325.23,11.83 326.33,11.40 326.93,11.13C327.53,10.87 328.23,10.67 328.50,10.67C328.77,10.67 329.47,10.47 330.07,10.20C331.20,9.73 336.93,7.97 339.83,7.17C342.10,6.57 344.80,5.83 347.03,5.20C348.07,4.90 349.23,4.67 349.63,4.67C350.03,4.67 351.20,4.47 352.27,4.20C356.73,3.10 358.90,2.67 359.73,2.67C360.23,2.67 361.73,2.47 363.07,2.20C366.57,1.50 373.30,0.77 380.00,0.30C388.97,-0.30 417.50,0.27 430.67,1.30C433.33,1.50 438.43,1.90 442.00,2.20C450.43,2.83 465.73,4.27 473.83,5.17C476.23,5.43 478.83,5.73 479.67,5.80C481.23,5.97 484.93,6.40 489.67,7.00C491.23,7.20 494.13,7.50 496.13,7.67C498.10,7.83 500.03,8.07 500.37,8.17C501.13,8.43 501.20,9.43 500.50,10.00C500.23,10.23 500.00,10.53 500.00,10.67C500.00,10.80 498.43,13.57 496.50,16.80C494.57,20.03 493.00,22.77 493.00,22.83C493.00,23.20 485.57,35.30 482.70,39.63C480.93,42.27 479.33,44.67 479.17,44.93C477.73,47.17 471.53,55.43 467.03,61.13C452.27,79.80 433.13,98.30 415.70,110.73C412.53,113.00 408.07,116.10 407.40,116.50C407.10,116.70 406.30,117.23 405.67,117.70C405.03,118.20 403.97,118.87 403.33,119.23C402.70,119.57 401.53,120.27 400.73,120.77C399.97,121.27 398.77,122.00 398.07,122.37C397.40,122.73 396.60,123.17 396.33,123.33C392.00,126.07 380.53,131.77 373.50,134.67C370.73,135.80 368.00,136.93 367.40,137.20C366.80,137.47 366.03,137.67 365.67,137.67C365.33,137.67 364.97,137.80 364.87,137.93C364.77,138.10 362.93,138.80 360.77,139.47C358.60,140.17 356.30,140.93 355.67,141.17C354.27,141.67 350.93,142.57 347.17,143.43C346.07,143.70 344.57,144.07 343.83,144.27C338.97,145.53 331.77,146.73 321.33,148.03C317.37,148.50 302.03,148.83 301.67,148.47C301.33,148.10 302.13,141.80 302.80,139.50C304.53,133.63 307.57,128.67 312.03,124.27C317.17,119.23 323.43,115.90 330.00,114.67C337.07,113.37 348.00,110.53 351.17,109.20C351.73,108.93 352.67,108.63 353.23,108.53C353.83,108.40 354.40,108.13 354.50,107.97C354.63,107.80 355.00,107.67 355.40,107.67C355.77,107.67 356.47,107.47 356.93,107.20C357.43,106.93 358.50,106.50 359.33,106.17C360.17,105.87 361.27,105.40 361.83,105.17C362.40,104.90 363.60,104.40 364.50,104.00C366.47,103.17 375.63,98.57 377.33,97.60C389.37,90.63 394.20,87.37 404.43,79.23C411.77,73.43 421.30,64.57 428.13,57.30C429.40,55.93 431.20,54.00 432.13,53.00C433.70,51.37 435.07,49.77 439.37,44.67C442.80,40.57 446.93,35.13 446.73,34.93C446.43,34.67 437.87,33.83 428.33,33.17C402.97,31.40 381.33,31.40 371.43,33.17C369.93,33.43 368.23,33.67 367.67,33.67C367.10,33.67 365.70,33.87 364.57,34.13C362.23,34.67 359.23,35.27 357.00,35.67C356.17,35.83 354.83,36.13 354.00,36.33C350.17,37.33 349.03,37.63 347.17,38.17C336.50,41.20 327.97,44.53 317.50,49.70C316.03,50.43 314.60,51.17 314.33,51.33C314.07,51.50 312.70,52.27 311.33,53.07C309.97,53.87 308.60,54.63 308.33,54.77C308.07,54.90 307.43,55.27 306.93,55.60C306.47,55.90 305.33,56.60 304.43,57.13C303.57,57.67 301.87,58.80 300.67,59.67C299.47,60.57 297.67,61.83 296.63,62.57C295.60,63.27 294.03,64.43 293.13,65.17C279.87,76.27 272.80,83.97 264.80,96.00C261.83,100.47 260.37,103.00 257.87,107.93C256.07,111.47 254.67,114.57 253.67,117.00C253.27,118.00 252.73,119.30 252.50,119.83C251.97,120.93 249.27,129.17 248.50,131.90C247.10,136.93 246.30,140.07 246.00,142.00C245.87,142.83 245.57,144.40 245.33,145.50C244.27,151.07 244.00,152.63 244.00,153.83C244.00,154.57 243.80,156.47 243.53,158.07C243.30,159.67 243.20,161.10 243.30,161.23C243.40,161.37 244.10,161.83 244.83,162.23C247.80,163.83 252.30,166.53 258.83,170.67C261.20,172.13 265.70,175.47 272.27,180.57C282.00,188.13 293.53,200.03 302.83,212.13L305.17,215.17L315.67,215.33C321.43,215.43 338.47,215.53 353.47,215.60C368.50,215.63 381.10,215.73 381.47,215.80C386.40,216.73 390.53,217.87 390.87,218.37C390.97,218.53 391.23,218.67 391.50,218.67C392.43,218.67 397.50,222.00 400.03,224.30C402.73,226.77 406.30,231.73 407.47,234.67C407.80,235.50 408.27,236.67 408.53,237.27C408.80,237.87 409.00,238.63 409.00,238.97C409.00,239.30 409.23,240.13 409.50,240.80C409.87,241.67 410.00,242.90 409.93,244.93L409.83,247.80L381.50,247.73C365.93,247.70 346.60,247.57 338.60,247.43L324.00,247.23L324.00,248.10C324.00,248.57 324.20,249.37 324.47,249.90C325.10,251.13 325.83,252.83 326.43,254.50C326.70,255.23 327.20,256.50 327.50,257.33C327.80,258.17 328.30,259.43 328.57,260.17C328.83,260.90 329.27,262.00 329.53,262.60C329.80,263.20 330.00,263.90 330.00,264.17C330.00,264.43 330.20,265.13 330.47,265.73C330.70,266.33 331.17,267.73 331.50,268.83C331.83,269.93 332.27,271.50 332.50,272.33C332.97,273.87 333.63,276.30 334.37,279.00C334.60,279.83 334.90,281.10 335.03,281.83C335.17,282.57 335.43,283.77 335.63,284.50C336.47,287.83 337.00,290.57 337.00,291.27C337.00,291.70 337.20,292.97 337.47,294.10C339.83,304.33 341.53,329.40 340.70,341.50C340.47,344.60 340.17,349.27 340.00,351.83C339.83,354.40 339.53,357.30 339.37,358.30C339.17,359.27 339.00,360.77 339.00,361.60C339.00,362.97 338.57,365.93 337.60,371.17C337.40,372.27 337.13,373.93 337.00,374.83C336.70,376.93 336.07,380.30 335.50,382.67C335.27,383.67 334.80,385.70 334.50,387.17C334.20,388.63 333.73,390.63 333.47,391.60C333.20,392.53 332.80,394.13 332.53,395.07C332.07,396.90 331.40,399.27 330.47,402.60C330.17,403.63 329.73,405.03 329.50,405.67C329.27,406.30 328.53,408.50 327.90,410.50C327.23,412.50 326.37,415.00 326.00,416.00C325.60,417.00 325.17,418.20 325.00,418.67C324.83,419.13 324.40,420.33 324.00,421.33C323.60,422.33 323.17,423.57 323.00,424.03C322.87,424.50 322.60,425.17 322.40,425.53C322.00,426.30 321.63,427.20 320.50,430.00C320.00,431.20 319.47,432.30 319.30,432.50C319.13,432.67 319.00,433.03 319.00,433.33C319.00,433.83 311.37,449.17 310.07,451.33C309.67,451.97 309.23,452.73 309.10,453.00C308.67,454.03 302.83,463.63 300.73,466.83C298.10,470.87 294.27,476.23 291.53,479.80C290.40,481.23 288.87,483.23 288.10,484.23C285.40,487.77 276.30,497.90 272.43,501.70C263.00,510.97 253.83,518.50 243.70,525.30C239.77,527.93 233.80,531.67 233.50,531.67C233.43,531.67 232.80,532.07 232.10,532.53C231.40,533.00 230.53,533.53 230.17,533.70C229.80,533.87 229.10,534.27 228.60,534.60C227.37,535.40 223.00,538.03 222.20,538.47C221.80,538.67 220.90,539.23 220.17,539.67C219.40,540.13 218.50,540.67 218.17,540.90C217.80,541.13 216.67,541.80 215.60,542.47C213.53,543.73 212.57,544.10 212.23,543.80ZM250.67,478.33C255.47,473.57 262.13,465.83 266.90,459.50C270.73,454.37 277.00,445.10 278.90,441.67C279.27,441.03 280.53,438.77 281.73,436.67C283.70,433.17 288.67,423.27 290.27,419.67C291.13,417.67 293.93,410.83 294.57,409.17C297.07,402.57 298.00,399.93 298.00,399.47C298.00,399.23 298.20,398.53 298.47,397.93C299.23,396.13 301.20,389.27 302.43,384.17C302.70,383.07 303.10,381.50 303.33,380.67C303.53,379.83 303.80,378.73 303.87,378.17C304.07,377.00 304.73,373.80 305.47,370.50C305.77,369.23 306.00,367.57 306.00,366.83C306.00,366.10 306.17,364.97 306.33,364.33C306.53,363.70 306.80,361.97 306.97,360.50C307.13,359.03 307.43,356.63 307.63,355.17C309.30,342.10 309.30,323.47 307.63,310.83C307.43,309.37 307.17,307.03 307.00,305.67C306.77,303.20 306.40,301.07 305.47,296.40C304.53,291.60 303.90,288.80 303.60,287.83C303.40,287.30 303.13,286.23 303.00,285.50C302.43,282.63 300.10,274.80 299.47,273.60C299.20,273.13 299.00,272.50 299.00,272.20C299.00,271.93 298.80,271.20 298.53,270.60C298.27,270.00 297.80,268.83 297.50,268.00C296.60,265.57 295.17,262.23 293.07,257.67C291.70,254.67 290.80,252.87 289.47,250.33C287.47,246.60 290.33,246.97 265.20,247.07L243.17,247.17L243.20,285.33C243.20,333.20 244.00,483.73 244.23,484.10C244.40,484.37 246.63,482.37 250.67,478.33ZM613.17,442.33C612.27,442.20 610.60,442.00 609.50,441.87C607.03,441.57 603.13,440.80 600.67,440.13C594.47,438.43 594.23,438.33 589.07,436.13C581.60,432.90 573.97,427.60 567.97,421.43C562.90,416.20 559.23,411.03 556.07,404.67C552.17,396.73 550.40,391.07 548.43,380.00C548.00,377.47 547.87,374.67 547.87,366.17C547.87,355.13 547.90,354.73 549.57,346.33C550.57,341.27 552.67,334.90 555.03,329.73C555.57,328.60 556.00,327.60 556.00,327.53C556.00,327.23 560.40,320.03 561.57,318.47C564.57,314.37 565.80,312.97 569.37,309.50C573.43,305.57 575.70,303.73 579.67,301.13C583.90,298.40 592.83,294.20 595.93,293.50C596.53,293.40 597.07,293.13 597.17,292.97C597.30,292.80 597.70,292.67 598.10,292.67C598.50,292.67 599.50,292.47 600.33,292.20C601.17,291.93 602.97,291.50 604.33,291.20C610.00,290.07 612.90,289.83 622.67,289.83C632.00,289.83 633.57,289.93 640.33,291.03C641.53,291.20 643.33,291.50 644.33,291.63C645.33,291.80 646.77,292.07 647.50,292.27C648.23,292.47 649.97,292.87 651.33,293.17C653.93,293.73 656.80,294.50 658.50,295.07C659.07,295.23 660.10,295.53 660.87,295.67C661.60,295.83 662.57,296.10 663.03,296.27C663.70,296.53 665.13,296.97 668.30,297.87C668.77,298.00 668.73,298.43 668.03,302.00C667.73,303.63 667.20,305.87 666.50,308.50C666.03,310.17 665.53,312.27 665.00,314.83C664.87,315.57 664.40,317.60 664.00,319.33C663.60,321.07 663.17,323.00 663.10,323.60C663.00,324.17 662.77,324.67 662.53,324.67C662.17,324.67 661.00,322.20 661.00,321.37C661.00,321.13 660.80,320.53 660.53,320.07C660.30,319.57 659.40,317.77 658.53,316.10C657.70,314.40 656.07,311.70 654.93,310.10C652.60,306.80 647.33,301.37 644.83,299.70C638.10,295.17 633.27,293.20 626.47,292.17C622.23,291.53 620.70,291.53 615.77,292.17C611.17,292.77 605.60,294.17 603.40,295.30C603.10,295.47 601.70,296.17 600.33,296.83C592.60,300.70 585.43,308.37 580.73,317.83C579.83,319.67 578.83,321.83 578.50,322.67C578.20,323.50 577.77,324.47 577.57,324.83C577.40,325.20 577.10,325.93 576.97,326.50C576.83,327.03 576.57,327.97 576.40,328.50C576.20,329.03 575.80,330.33 575.53,331.33C575.27,332.33 574.80,333.97 574.53,334.97C574.23,335.93 574.00,337.03 574.00,337.40C574.00,337.73 573.80,338.97 573.53,340.10C572.10,346.50 570.80,362.13 571.13,369.17C571.60,379.10 572.37,386.33 573.53,392.50C574.37,396.93 575.73,402.03 576.53,403.93C576.80,404.53 577.00,405.23 577.00,405.50C577.00,405.77 577.20,406.47 577.47,407.07C577.73,407.67 578.27,409.00 578.67,410.00C579.60,412.37 582.00,417.13 583.17,419.03C586.43,424.20 591.97,430.17 596.10,432.90C598.73,434.63 603.93,437.30 605.47,437.70C606.03,437.83 606.93,438.10 607.50,438.30C615.53,441.03 627.83,440.97 638.00,438.10C649.10,434.97 659.70,427.57 665.30,419.03C668.00,414.90 670.43,409.20 671.30,404.93C671.73,402.83 672.30,402.17 673.33,402.50C674.40,402.83 674.30,403.80 672.43,409.83C672.17,410.73 671.73,411.93 671.50,412.50C670.47,414.77 669.60,416.53 669.23,417.13C665.90,422.43 662.53,426.57 659.50,429.13C657.37,430.93 653.97,433.50 653.33,433.77C653.07,433.90 652.40,434.30 651.83,434.63C649.33,436.23 643.13,439.07 640.83,439.67C640.27,439.80 639.47,440.07 639.00,440.27C637.90,440.70 633.97,441.53 630.03,442.17C626.73,442.70 616.37,442.80 613.17,442.33ZM722.67,442.13C715.53,440.97 708.80,438.57 704.00,435.53C699.73,432.83 698.57,431.90 695.47,428.83C690.67,424.10 686.77,418.23 684.53,412.33C684.20,411.50 683.73,410.40 683.47,409.90C683.20,409.37 683.00,408.70 683.00,408.37C683.00,408.03 682.80,407.13 682.53,406.30C681.30,402.43 680.87,398.27 680.90,391.00C680.90,386.70 681.10,383.17 681.33,382.17C681.53,381.27 681.87,379.73 682.00,378.83C683.00,372.90 686.60,364.87 690.63,359.50C695.67,352.80 702.07,347.87 710.50,344.17C712.73,343.17 717.70,341.67 718.73,341.67C719.17,341.67 720.27,341.43 721.17,341.13C723.67,340.37 735.93,340.37 740.10,341.17C745.97,342.27 752.87,344.83 757.63,347.70C760.00,349.10 763.90,352.23 766.17,354.50C771.27,359.60 776.53,368.63 778.00,374.67C778.13,375.30 778.43,376.27 778.60,376.83C779.93,380.70 780.60,389.70 780.07,396.67C779.67,401.73 779.43,403.30 778.47,406.37C778.20,407.23 778.00,408.23 778.00,408.60C778.00,409.00 777.87,409.37 777.70,409.50C777.53,409.60 777.27,410.17 777.17,410.77C776.83,412.17 774.27,417.67 772.93,419.83C767.20,428.90 759.40,435.40 749.73,439.13C746.57,440.33 745.73,440.60 743.33,441.10C741.97,441.40 740.00,441.80 739.00,442.00C735.97,442.67 726.33,442.73 722.67,442.13ZM816.33,442.13C809.63,441.00 804.00,438.63 799.63,435.10C797.87,433.70 793.00,427.83 793.00,427.13C793.00,427.00 792.60,426.07 792.10,425.03C791.57,423.90 791.20,422.57 791.20,421.67C791.17,420.30 791.23,420.17 791.97,420.17C792.57,420.17 792.83,420.40 793.00,421.00C794.20,425.50 799.10,431.53 803.87,434.37C806.33,435.83 810.70,437.67 811.73,437.67C812.17,437.67 812.70,437.83 812.87,438.00C813.27,438.40 816.97,438.93 821.10,439.23C830.67,439.87 839.77,436.03 843.00,429.93C844.07,427.93 844.13,427.70 844.10,424.33C844.10,421.20 844.00,420.57 843.10,418.47C840.53,412.37 834.97,407.30 819.67,397.10C806.17,388.07 803.50,386.13 799.90,382.70C797.30,380.23 795.37,377.63 794.10,375.00C792.20,371.00 791.93,369.60 792.07,364.67C792.17,360.60 792.27,359.93 793.13,357.83C796.57,349.50 803.93,344.03 815.67,341.13C819.10,340.30 830.93,340.27 833.50,341.10C834.40,341.40 835.57,341.67 836.07,341.67C836.57,341.67 837.03,341.80 837.17,341.97C837.27,342.13 837.80,342.37 838.33,342.50C838.90,342.63 840.63,343.40 842.20,344.20C843.80,345.00 845.17,345.60 845.27,345.50C845.47,345.33 845.00,344.37 844.00,342.83C843.63,342.27 843.20,341.53 843.00,341.17C842.80,340.80 842.37,340.03 842.00,339.50C839.90,336.20 837.87,331.17 836.50,325.80C835.93,323.50 835.83,317.63 836.37,315.33C836.57,314.50 836.83,313.23 836.97,312.50C837.73,308.73 841.00,303.00 844.10,300.07C847.17,297.20 852.13,294.33 856.00,293.23C861.93,291.53 861.63,291.60 868.03,291.77C873.07,291.90 874.60,292.07 876.50,292.67C877.77,293.07 879.23,293.47 879.73,293.57C880.23,293.67 880.83,293.93 881.03,294.20C881.23,294.47 881.60,294.67 881.80,294.67C882.50,294.67 884.70,295.93 887.00,297.63C891.00,300.60 894.97,305.47 896.00,308.67C896.17,309.13 896.70,310.53 897.20,311.83L898.10,314.17L898.27,327.07C898.33,334.20 898.43,340.03 898.47,340.07C898.47,340.10 905.03,340.23 913.00,340.33L927.50,340.50L927.50,341.50L927.50,342.50L913.00,342.67L898.50,342.83L898.40,377.67C898.27,413.17 898.47,420.63 899.53,423.30C899.80,423.90 900.00,424.70 900.00,425.03C900.00,425.97 901.97,429.93 903.30,431.77C905.87,435.23 909.77,436.73 913.93,435.83C916.50,435.30 917.20,435.00 919.57,433.27C922.43,431.13 924.50,428.00 926.57,422.60C927.23,420.87 927.80,420.43 928.57,421.07C929.10,421.50 929.03,422.77 928.33,424.67C927.30,427.43 925.07,431.63 923.70,433.33C922.03,435.43 919.17,438.20 918.17,438.70C917.80,438.87 916.90,439.37 916.17,439.77C909.93,443.27 899.43,443.40 892.00,440.03C885.30,436.97 880.30,429.77 878.97,421.17C878.07,415.30 878.00,412.13 878.00,378.33L878.03,342.83L870.10,342.67L862.17,342.50L862.17,341.50C862.17,340.53 862.23,340.50 864.33,340.13C865.53,339.90 867.13,339.73 867.90,339.70C868.67,339.67 869.70,339.50 870.23,339.30C870.73,339.10 871.70,338.80 872.33,338.67C875.37,337.97 880.83,335.40 884.43,333.00C886.67,331.50 889.77,328.63 891.30,326.63C893.13,324.27 894.63,319.97 894.63,317.17C894.67,313.37 892.93,308.03 890.80,305.10C888.80,302.43 884.43,298.60 882.33,297.70C881.87,297.50 881.27,297.20 881.00,297.07C878.83,295.83 876.73,295.07 874.50,294.70C873.60,294.53 871.93,294.23 870.83,294.00C868.60,293.53 864.97,293.70 860.67,294.43C857.53,295.00 856.47,295.33 853.43,296.70C852.27,297.23 851.27,297.67 851.17,297.67C850.87,297.67 848.97,299.07 846.90,300.80C842.97,304.10 839.83,309.57 838.97,314.50C837.87,320.87 838.30,325.07 840.73,331.67C841.37,333.30 843.67,337.77 845.00,339.83C845.37,340.37 845.80,341.13 846.00,341.50C846.17,341.87 847.53,343.97 849.00,346.17C850.47,348.37 851.83,350.47 852.00,350.83C852.20,351.20 852.63,351.93 853.00,352.50C853.33,353.07 854.13,354.57 854.77,355.83C857.40,361.27 857.60,362.50 855.87,362.50C855.00,362.50 854.83,362.30 854.03,360.33C852.90,357.60 851.77,355.70 849.97,353.53C848.50,351.80 845.50,349.17 844.00,348.37C837.23,344.73 834.57,344.00 827.27,343.77C822.80,343.63 821.67,343.70 819.43,344.27C815.13,345.37 812.53,346.70 810.20,349.10C808.07,351.30 807.37,352.70 807.10,355.40C806.90,357.23 807.70,360.43 808.77,362.17C810.40,364.83 811.30,365.90 813.90,368.30C817.00,371.17 817.97,371.90 824.67,376.47C828.43,379.00 831.87,381.37 838.83,386.17C849.30,393.37 856.23,400.07 858.80,405.50C860.80,409.67 861.10,411.03 861.10,415.80C861.10,419.67 861.00,420.47 860.20,422.90C857.83,429.97 851.67,435.93 843.33,439.17C842.50,439.47 841.33,439.93 840.73,440.20C840.13,440.47 839.40,440.67 839.10,440.67C838.80,440.67 837.80,440.87 836.87,441.13C831.67,442.60 822.00,443.07 816.33,442.13ZM966.83,442.50C966.63,442.47 965.37,442.23 964.00,442.00C960.03,441.33 956.27,439.90 952.33,437.60C949.40,435.90 944.87,431.20 943.47,428.40C943.13,427.73 942.67,426.93 942.47,426.67C942.27,426.40 942.00,425.87 941.90,425.50C941.80,425.13 941.40,423.93 941.00,422.83C940.07,420.20 939.33,415.27 939.33,411.70C939.33,395.57 947.60,383.70 962.00,379.17C965.43,378.10 965.90,378.00 968.37,377.67C972.87,377.03 977.13,376.70 978.83,376.87C986.63,377.57 991.53,379.40 995.27,383.00C996.53,384.20 996.63,385.43 995.43,385.60C994.97,385.67 994.23,385.23 993.23,384.27C990.50,381.60 985.10,379.67 980.43,379.67C977.83,379.70 974.03,380.73 971.53,382.13C969.03,383.53 965.47,387.03 964.33,389.13C963.87,390.00 963.23,391.20 962.93,391.77C962.37,392.83 961.57,395.30 960.47,399.30C959.57,402.50 959.57,414.70 960.47,418.50C961.90,424.70 963.80,428.47 967.07,431.63C971.30,435.70 976.67,437.03 983.83,435.70C989.60,434.63 997.17,429.50 1000.87,424.10L1002.17,422.23L1002.17,399.87C1002.17,380.37 1002.07,376.93 1001.57,373.00C1001.23,370.53 1000.80,367.83 1000.60,367.00C1000.40,366.17 1000.13,364.80 999.97,363.90C999.27,359.67 996.20,352.70 994.10,350.40C993.87,350.17 993.50,349.70 993.27,349.40C992.63,348.53 989.60,345.97 988.83,345.63C988.47,345.47 987.93,345.20 987.67,345.03C985.30,343.70 980.87,342.67 977.47,342.67C975.03,342.67 970.30,343.57 967.67,344.50C963.30,346.10 958.47,349.20 955.00,352.67C952.63,355.07 949.00,359.93 949.00,360.73C949.00,360.93 948.80,361.37 948.57,361.63C948.33,361.93 947.87,362.80 947.57,363.60C946.80,365.53 946.10,367.40 945.87,368.07C945.67,368.70 944.80,368.83 944.07,368.40C943.73,368.17 943.70,367.77 944.00,366.53C944.17,365.70 944.47,364.73 944.63,364.40C944.80,364.10 945.20,363.17 945.53,362.33C946.43,360.10 948.90,356.07 950.63,354.00C956.20,347.33 962.17,343.70 971.67,341.17C974.63,340.37 985.00,340.37 987.50,341.13C988.40,341.43 989.53,341.67 990.00,341.67C990.47,341.67 991.90,342.07 993.17,342.53C994.43,343.00 995.80,343.47 996.17,343.57C997.83,344.10 1002.93,346.90 1005.27,348.63C1009.00,351.40 1011.90,354.43 1014.47,358.30C1017.87,363.40 1019.50,367.37 1021.33,374.83C1022.20,378.37 1022.40,382.93 1022.60,404.83L1022.83,427.50L1024.07,429.53C1024.77,430.63 1026.10,432.27 1027.07,433.10C1028.03,433.97 1029.20,434.97 1029.63,435.37C1030.60,436.23 1030.13,436.67 1028.20,436.67C1027.47,436.67 1025.60,436.90 1024.03,437.17C1022.47,437.43 1019.60,437.87 1017.67,438.17C1015.73,438.47 1013.20,438.87 1012.00,439.07C1010.80,439.23 1008.77,439.53 1007.50,439.70C1006.23,439.87 1004.63,440.10 1003.97,440.20C1003.30,440.30 1002.67,440.27 1002.53,440.07C1002.43,439.90 1002.33,436.97 1002.30,433.53C1002.27,429.00 1002.17,427.33 1001.87,427.33C1001.67,427.33 1000.43,428.40 999.17,429.70C997.17,431.70 992.33,435.57 990.17,436.90C989.43,437.33 985.03,439.47 983.50,440.13C980.23,441.53 974.33,442.67 970.37,442.63C968.60,442.63 967.03,442.57 966.83,442.50ZM734.03,439.97C737.10,439.57 740.00,438.73 741.70,437.67C742.33,437.30 743.07,436.90 743.33,436.77C744.53,436.23 747.63,433.60 749.03,431.97C752.13,428.27 755.47,422.23 756.17,419.00C756.30,418.47 756.53,417.93 756.70,417.83C756.87,417.70 757.00,417.27 757.00,416.80C757.00,416.33 757.17,415.67 757.33,415.33C757.77,414.50 758.63,410.47 759.00,407.50C759.13,406.23 759.43,404.20 759.63,403.00C760.20,399.50 760.10,383.50 759.47,379.17C758.60,373.03 757.67,368.93 756.50,365.67C754.93,361.40 753.87,358.77 753.47,358.30C753.20,358.03 753.00,357.63 753.00,357.47C753.00,356.80 749.83,352.40 748.07,350.57C745.80,348.23 743.00,346.07 741.17,345.20C740.43,344.87 739.60,344.47 739.27,344.30C738.97,344.17 737.47,343.73 735.90,343.37C732.57,342.53 728.43,342.47 726.13,343.17C725.23,343.43 724.23,343.67 723.87,343.67C723.53,343.67 721.90,344.33 720.20,345.17C714.87,347.80 710.80,352.20 707.53,358.83C705.23,363.53 705.10,363.93 703.50,369.83C701.33,377.70 700.33,392.30 701.33,400.67C701.53,402.23 701.83,404.70 702.00,406.17C702.13,407.63 702.47,409.60 702.67,410.50C703.57,414.30 704.07,416.23 704.37,417.17C704.57,417.73 704.83,418.60 705.00,419.17C705.37,420.63 707.67,425.73 708.77,427.50C709.40,428.53 711.83,431.73 712.70,432.70C713.67,433.73 716.90,436.37 717.83,436.87C721.50,438.83 722.77,439.30 726.00,439.83C729.30,440.37 730.70,440.40 734.03,439.97ZM1160.80,421.53C1160.50,420.77 1160.77,420.57 1162.40,420.37C1164.10,420.13 1164.43,419.43 1163.03,418.90C1162.47,418.70 1162.00,418.30 1162.00,418.00C1162.00,417.23 1161.33,416.67 1160.40,416.67C1159.40,416.67 1157.83,415.83 1156.40,414.50C1153.20,411.63 1152.63,406.43 1155.10,402.70C1156.67,400.33 1159.83,398.67 1162.70,398.67C1165.63,398.67 1170.17,401.23 1169.93,402.80C1169.77,403.87 1168.73,403.83 1167.53,402.73C1166.00,401.27 1164.57,400.67 1162.67,400.67C1159.77,400.67 1156.70,402.80 1156.00,405.27C1155.03,408.80 1156.07,412.07 1158.70,413.83C1160.00,414.70 1160.40,414.80 1162.57,414.77C1165.03,414.73 1166.77,414.03 1167.77,412.70C1168.40,411.80 1169.00,411.57 1169.50,412.00C1170.23,412.60 1170.10,413.40 1169.07,414.37C1168.00,415.43 1165.63,416.67 1164.70,416.67C1163.57,416.67 1163.63,417.23 1164.83,418.13C1166.13,419.13 1166.27,419.80 1165.40,420.93C1164.60,421.97 1161.13,422.40 1160.80,421.53ZM1072.10,416.13C1072.00,415.87 1072.13,415.07 1072.43,414.40C1072.70,413.73 1073.17,412.53 1073.47,411.73C1076.50,403.73 1078.10,399.83 1078.50,399.37C1079.20,398.63 1080.63,399.17 1080.87,400.27C1081.00,400.77 1081.53,402.30 1082.07,403.67C1082.60,405.03 1083.27,406.77 1083.57,407.50C1083.83,408.23 1084.27,409.23 1084.53,409.73C1084.80,410.20 1085.00,410.90 1085.00,411.23C1085.00,411.60 1085.23,412.17 1085.50,412.53C1085.77,412.87 1086.00,413.47 1086.00,413.83C1086.00,414.20 1086.23,414.77 1086.50,415.10C1087.10,415.93 1086.80,416.67 1085.83,416.67C1085.13,416.67 1084.43,415.53 1083.83,413.43C1083.57,412.50 1082.57,412.30 1078.53,412.40C1075.97,412.47 1075.23,412.60 1075.10,413.00C1075.03,413.27 1074.77,413.93 1074.50,414.50C1074.27,415.07 1073.97,415.77 1073.87,416.07C1073.63,416.80 1072.40,416.87 1072.10,416.13ZM1097.77,416.40C1097.57,416.27 1097.00,414.97 1096.53,413.53C1096.03,412.07 1095.53,410.73 1095.37,410.53C1095.23,410.33 1095.00,409.80 1094.90,409.33C1094.80,408.87 1094.40,407.67 1094.03,406.67C1092.63,403.10 1091.67,400.20 1091.67,399.60C1091.67,398.73 1092.87,398.83 1093.47,399.73C1093.73,400.17 1094.27,401.40 1094.63,402.50C1095.00,403.60 1095.63,405.33 1096.00,406.33C1096.40,407.33 1096.80,408.47 1096.90,408.83C1097.00,409.20 1097.27,409.93 1097.50,410.50C1097.73,411.07 1098.00,411.80 1098.07,412.13C1098.30,413.57 1098.97,412.87 1099.97,410.10C1100.57,408.50 1101.50,406.03 1102.03,404.63C1102.57,403.23 1103.00,401.90 1103.00,401.63C1103.00,401.37 1103.30,400.67 1103.67,400.07C1104.33,399.00 1105.47,398.63 1105.73,399.40C1105.90,399.80 1103.93,405.37 1100.57,414.17C1100.30,414.90 1099.97,415.77 1099.87,416.07C1099.67,416.67 1098.50,416.87 1097.77,416.40ZM1110.80,415.50C1110.93,414.83 1111.23,413.80 1111.50,413.20C1112.13,411.73 1114.00,407.03 1114.50,405.67C1114.73,405.03 1115.17,403.90 1115.43,403.17C1115.70,402.43 1116.10,401.37 1116.33,400.77C1116.53,400.20 1117.00,399.47 1117.37,399.13C1117.97,398.60 1118.03,398.60 1118.63,399.13C1119.00,399.47 1119.47,400.20 1119.67,400.77C1119.90,401.37 1120.50,402.90 1121.00,404.17C1121.53,405.43 1122.37,407.63 1122.87,409.00C1123.37,410.37 1124.10,412.37 1124.53,413.40C1125.60,416.00 1125.60,416.73 1124.43,416.60C1123.73,416.53 1123.47,416.20 1123.03,414.97C1122.13,412.37 1122.03,412.30 1118.10,412.37C1116.00,412.40 1114.43,412.60 1114.10,412.83C1113.77,413.07 1113.30,414.00 1113.00,414.87C1112.57,416.27 1112.37,416.50 1111.53,416.60C1110.60,416.70 1110.60,416.70 1110.80,415.50ZM1132.90,416.47C1132.57,416.13 1132.63,399.93 1132.97,399.40C1133.53,398.50 1134.50,399.23 1136.57,402.17C1137.73,403.83 1138.83,405.47 1139.00,405.83C1139.20,406.20 1139.93,407.33 1140.70,408.33C1141.43,409.33 1142.33,410.67 1142.73,411.23C1143.10,411.83 1143.53,412.27 1143.67,412.17C1143.83,412.07 1143.97,409.17 1144.00,405.77C1144.00,399.37 1144.17,398.53 1145.27,399.20C1145.77,399.53 1145.83,400.40 1145.83,408.03C1145.83,415.97 1145.80,416.50 1145.23,416.60C1144.30,416.80 1143.70,416.10 1139.47,409.80C1137.33,406.60 1135.40,404.03 1135.20,404.10C1134.97,404.17 1134.77,406.40 1134.67,410.37C1134.50,416.23 1134.47,416.50 1133.83,416.60C1133.43,416.67 1133.03,416.60 1132.90,416.47ZM1176.17,416.33C1176.03,416.13 1176.17,415.60 1176.47,415.17C1176.77,414.73 1177.00,414.13 1177.00,413.90C1177.00,413.63 1177.47,412.30 1178.03,410.97C1179.00,408.67 1179.43,407.53 1180.50,404.67C1181.47,402.10 1182.43,399.80 1182.73,399.40C1182.93,399.20 1183.40,399.00 1183.80,399.00C1184.60,399.00 1184.90,399.63 1187.83,407.33C1189.67,412.20 1190.03,413.07 1190.53,414.27C1191.27,416.00 1191.17,416.73 1190.13,416.60C1189.40,416.53 1189.13,416.17 1188.50,414.50L1187.77,412.50L1184.97,412.40C1180.97,412.23 1179.40,412.53 1179.17,413.43C1178.57,415.57 1177.87,416.67 1177.13,416.67C1176.70,416.67 1176.27,416.50 1176.17,416.33ZM1198.53,416.40C1198.27,415.97 1198.20,399.80 1198.47,399.40C1198.63,399.13 1200.00,399.00 1202.50,399.00C1208.07,399.00 1210.27,400.00 1212.53,403.50C1213.03,404.30 1213.17,405.13 1213.17,407.67C1213.17,411.17 1212.80,412.27 1210.87,414.27C1209.07,416.20 1207.47,416.67 1202.80,416.67C1200.57,416.67 1198.63,416.53 1198.53,416.40ZM1219.10,416.13C1218.93,415.67 1219.13,415.10 1220.53,412.23C1220.80,411.70 1221.00,411.07 1221.00,410.83C1221.00,410.60 1221.43,409.40 1222.00,408.17C1222.57,406.93 1223.00,405.80 1223.00,405.60C1223.00,405.43 1223.20,404.80 1223.47,404.23C1223.70,403.63 1224.17,402.50 1224.50,401.67C1225.40,399.30 1225.50,399.17 1226.50,399.17C1227.47,399.17 1227.63,399.37 1228.43,401.50C1228.70,402.23 1229.17,403.43 1229.43,404.17C1229.73,404.90 1230.43,406.77 1231.00,408.33C1231.60,409.90 1232.27,411.60 1232.50,412.17C1234.23,416.13 1234.27,416.67 1233.00,416.67C1232.33,416.67 1231.00,414.53 1231.00,413.53C1231.00,412.67 1229.97,412.43 1226.20,412.47C1223.33,412.50 1222.53,412.60 1222.33,413.00C1222.20,413.27 1221.77,414.20 1221.37,415.07C1220.67,416.73 1219.53,417.23 1219.10,416.13ZM1208.00,414.00C1210.77,412.60 1212.13,409.03 1211.17,405.77C1210.10,402.13 1208.27,401.00 1203.47,401.00L1200.33,401.00L1200.33,407.60C1200.33,411.23 1200.43,414.33 1200.57,414.43C1200.67,414.57 1202.10,414.67 1203.73,414.67C1206.03,414.67 1207.00,414.53 1208.00,414.00ZM1081.97,410.37C1082.40,410.10 1082.30,409.73 1080.13,403.67C1079.57,402.03 1079.17,402.10 1078.53,403.90C1077.47,406.87 1076.93,408.17 1076.47,409.10C1076.20,409.63 1076.07,410.20 1076.20,410.37C1076.43,410.73 1081.33,410.77 1081.97,410.37ZM1120.80,409.67C1120.77,409.20 1120.50,408.23 1120.20,407.50C1119.93,406.77 1119.43,405.43 1119.10,404.53C1118.40,402.67 1117.80,402.27 1117.37,403.40C1117.20,403.83 1116.80,404.83 1116.50,405.67C1116.17,406.50 1115.70,407.73 1115.43,408.40C1114.57,410.43 1114.90,410.70 1118.07,410.60C1120.80,410.50 1120.83,410.50 1120.80,409.67ZM1186.83,410.33C1186.93,410.17 1186.80,409.60 1186.53,409.10C1186.27,408.57 1185.63,407.03 1185.13,405.67C1184.63,404.30 1184.10,402.97 1183.90,402.77C1183.47,402.17 1183.00,402.57 1183.00,403.50C1183.00,403.93 1182.87,404.37 1182.67,404.50C1182.50,404.60 1182.20,405.17 1182.03,405.77C1181.87,406.37 1181.47,407.50 1181.17,408.30C1180.37,410.50 1180.53,410.67 1183.80,410.67C1185.37,410.67 1186.73,410.53 1186.83,410.33ZM1229.47,410.37C1229.57,410.23 1229.33,409.30 1228.97,408.30C1228.60,407.30 1227.97,405.57 1227.57,404.40C1226.83,402.27 1226.20,401.77 1225.90,403.07C1225.80,403.50 1225.40,404.67 1225.03,405.67C1223.73,408.97 1223.37,410.13 1223.53,410.40C1223.77,410.77 1229.23,410.73 1229.47,410.37ZM1347.13,381.17C1346.87,380.50 1347.57,379.67 1348.20,379.90C1348.93,380.17 1350.33,379.70 1350.33,379.17C1350.33,378.90 1349.97,378.60 1349.50,378.47C1349.03,378.37 1348.47,377.87 1348.23,377.37C1347.97,376.77 1347.33,376.33 1346.20,375.97C1345.30,375.70 1343.90,374.90 1343.13,374.23C1339.03,370.67 1338.90,364.17 1342.80,360.73C1345.00,358.80 1345.90,358.50 1349.20,358.50C1352.10,358.50 1352.33,358.57 1353.87,359.60C1356.03,361.10 1356.87,362.20 1356.33,362.83C1355.73,363.57 1355.43,363.47 1353.77,362.00C1352.07,360.50 1350.80,360.17 1347.97,360.43C1345.57,360.63 1344.13,361.60 1342.87,363.87C1341.30,366.67 1341.83,370.50 1344.07,372.57C1345.13,373.57 1347.63,374.67 1348.90,374.67C1350.53,374.67 1352.70,373.73 1353.93,372.47C1355.10,371.27 1355.27,371.20 1356.13,371.53C1356.87,371.83 1356.80,372.23 1355.80,373.47C1354.70,374.73 1352.77,375.97 1351.80,376.00C1350.97,376.00 1349.93,377.03 1350.53,377.23C1351.27,377.47 1351.93,378.17 1352.17,378.93C1352.33,379.50 1352.13,379.90 1351.37,380.67C1350.57,381.50 1350.10,381.67 1348.83,381.67C1347.80,381.67 1347.27,381.50 1347.13,381.17ZM1165.83,376.33C1163.37,375.63 1162.93,375.43 1161.57,374.27C1159.83,372.83 1158.60,370.53 1158.30,368.17C1157.87,364.63 1160.13,360.73 1163.57,359.13C1165.23,358.33 1165.70,358.27 1168.07,358.43C1170.33,358.57 1170.97,358.77 1172.30,359.67C1177.47,363.20 1177.90,370.13 1173.20,374.27C1171.13,376.07 1168.00,376.97 1165.83,376.33ZM1221.00,376.37C1217.50,375.67 1214.70,373.00 1213.77,369.40C1212.83,365.80 1214.40,361.93 1217.77,359.63C1219.37,358.53 1219.57,358.50 1222.47,358.50C1225.17,358.50 1225.67,358.60 1227.00,359.40C1228.93,360.53 1230.10,361.77 1229.93,362.53C1229.73,363.60 1228.70,363.47 1227.47,362.20C1225.40,360.07 1220.87,359.67 1218.57,361.43C1216.47,363.03 1215.87,364.23 1215.70,366.90C1215.50,370.90 1216.87,372.90 1220.60,374.13C1223.47,375.10 1227.03,374.07 1228.33,371.90C1229.57,369.87 1229.40,369.70 1225.73,369.60C1222.53,369.50 1222.50,369.50 1222.50,368.67L1222.50,367.83L1226.77,367.73C1231.67,367.63 1231.60,367.60 1231.00,370.53C1230.47,373.13 1228.30,375.30 1225.43,376.10C1223.33,376.70 1222.87,376.73 1221.00,376.37ZM1074.07,376.00L1073.33,375.70L1073.40,367.27L1073.50,358.83L1078.00,358.73C1082.20,358.67 1082.63,358.70 1084.00,359.43C1085.90,360.43 1087.47,362.47 1088.17,364.90C1089.57,369.63 1086.63,374.87 1082.03,375.90C1080.10,376.33 1075.07,376.40 1074.07,376.00ZM1096.57,375.83C1096.13,375.40 1096.07,374.10 1096.10,367.10L1096.17,358.83L1101.27,358.73C1105.67,358.67 1106.37,358.73 1106.57,359.17C1106.93,360.20 1106.07,360.47 1102.40,360.50C1100.43,360.50 1098.63,360.63 1098.40,360.77C1097.97,361.07 1097.83,364.80 1098.20,365.80C1098.37,366.23 1099.03,366.33 1102.00,366.33C1104.10,366.33 1105.70,366.47 1105.83,366.67C1105.93,366.87 1105.93,367.30 1105.83,367.67C1105.63,368.27 1105.33,368.33 1102.00,368.33C1097.90,368.33 1098.10,368.20 1098.03,371.30C1097.97,374.43 1097.80,374.33 1102.37,374.33C1105.77,374.33 1106.40,374.40 1106.57,374.87C1106.97,375.97 1105.83,376.27 1101.33,376.30C1097.93,376.33 1096.97,376.23 1096.57,375.83ZM1114.73,376.07C1114.43,375.87 1114.33,373.80 1114.30,367.57C1114.30,363.03 1114.40,359.17 1114.50,359.00C1114.63,358.80 1116.57,358.67 1118.97,358.67C1122.83,358.67 1123.33,358.73 1124.33,359.40C1126.40,360.83 1127.23,363.20 1126.43,365.53C1125.97,366.87 1124.63,368.40 1123.60,368.73C1123.17,368.90 1124.20,371.13 1125.90,373.67C1126.87,375.10 1126.93,376.33 1126.03,376.33C1125.27,376.33 1124.97,376.00 1122.87,372.43L1121.13,369.50L1118.83,369.50L1116.50,369.50L1116.40,372.47C1116.30,375.90 1115.87,376.77 1114.73,376.07ZM1134.70,375.87C1134.43,375.57 1134.33,372.97 1134.40,367.13L1134.50,358.83L1135.67,358.73L1136.83,358.63L1139.50,363.13C1140.97,365.63 1142.33,367.67 1142.50,367.67C1142.70,367.67 1143.23,367.00 1143.67,366.17C1144.13,365.37 1145.33,363.33 1146.33,361.67C1148.13,358.73 1148.20,358.67 1149.33,358.73L1150.50,358.83L1150.60,367.20C1150.67,374.37 1150.60,375.63 1150.17,376.00C1149.77,376.33 1149.57,376.33 1149.17,376.00C1148.77,375.67 1148.67,374.47 1148.67,369.07L1148.67,362.57L1147.97,363.20C1147.57,363.53 1146.30,365.50 1145.10,367.50C1143.90,369.50 1142.87,371.23 1142.80,371.30C1142.50,371.60 1141.60,370.40 1139.47,366.80C1138.23,364.70 1137.07,363.03 1136.87,363.10C1136.63,363.17 1136.47,365.37 1136.40,369.50C1136.33,374.03 1136.20,375.87 1135.90,376.07C1135.33,376.43 1135.13,376.40 1134.70,375.87ZM1184.33,375.70C1184.10,375.27 1184.03,372.27 1184.07,366.93L1184.17,358.83L1188.40,358.73L1192.63,358.63L1194.33,360.27C1195.97,361.87 1196.00,361.90 1196.00,363.90C1196.00,365.43 1195.83,366.17 1195.27,367.00C1193.83,369.07 1192.93,369.47 1189.40,369.67L1186.17,369.83L1186.00,373.00C1185.87,375.60 1185.73,376.17 1185.27,376.27C1184.97,376.33 1184.53,376.07 1184.33,375.70ZM1204.17,376.00C1204.03,375.80 1203.93,371.87 1203.93,367.23L1203.93,358.83L1204.67,358.73C1205.10,358.67 1205.57,358.80 1205.70,359.07C1206.10,359.67 1206.07,374.43 1205.67,375.47C1205.33,376.33 1204.53,376.60 1204.17,376.00ZM1239.20,375.80C1239.10,375.50 1239.00,371.53 1239.00,366.97L1239.00,358.63L1240.23,358.73C1241.43,358.83 1241.57,358.97 1243.83,362.70C1247.13,368.17 1247.40,368.40 1248.00,366.80C1248.20,366.30 1248.63,365.53 1248.97,365.03C1249.30,364.57 1250.00,363.40 1250.47,362.50C1252.43,358.90 1252.47,358.83 1253.77,358.73L1255.00,358.63L1255.00,367.33C1255.00,375.10 1254.93,376.03 1254.47,376.23C1253.23,376.70 1252.97,375.47 1253.00,369.50C1253.03,366.40 1253.03,363.63 1253.03,363.40C1253.00,362.90 1252.00,362.87 1252.00,363.37C1252.00,363.57 1251.33,364.87 1250.50,366.23C1249.67,367.57 1249.00,368.80 1249.00,368.93C1249.00,369.07 1248.57,369.70 1248.03,370.33C1247.20,371.30 1247.00,371.40 1246.53,371.03C1246.23,370.80 1246.00,370.47 1246.00,370.30C1246.00,370.17 1245.10,368.53 1244.00,366.73C1242.90,364.90 1242.00,363.23 1242.00,363.03C1242.00,362.83 1241.77,362.67 1241.50,362.67C1241.07,362.67 1241.00,363.60 1241.00,369.10C1241.00,375.53 1240.87,376.33 1239.80,376.33C1239.60,376.33 1239.30,376.10 1239.20,375.80ZM1264.40,376.10C1264.10,376.00 1264.00,373.90 1264.00,367.30L1264.00,358.67L1269.03,358.67L1274.03,358.67L1273.93,359.60L1273.83,360.50L1270.00,360.50L1266.17,360.50L1266.17,363.33L1266.17,366.17L1269.57,366.27C1272.03,366.33 1273.03,366.50 1273.33,366.83C1273.67,367.23 1273.67,367.43 1273.33,367.83C1273.03,368.17 1272.03,368.33 1269.57,368.40L1266.17,368.50L1266.17,371.33L1266.17,374.17L1270.07,374.27C1273.23,374.33 1273.97,374.43 1274.13,374.90C1274.57,376.00 1273.80,376.20 1269.27,376.23C1266.83,376.27 1264.63,376.20 1264.40,376.10ZM1282.20,375.80C1282.10,375.50 1282.00,371.53 1282.00,366.97L1282.00,358.67L1282.93,358.67C1283.70,358.67 1284.20,359.20 1286.67,362.83C1288.23,365.13 1289.73,367.37 1290.00,367.80C1291.80,370.53 1292.37,371.33 1292.67,371.33C1292.87,371.33 1293.03,368.80 1293.07,365.07L1293.17,358.83L1294.07,358.73L1295.00,358.63L1295.00,367.10C1295.00,374.37 1294.93,375.63 1294.47,376.00C1294.07,376.37 1293.87,376.33 1293.33,375.80C1292.73,375.17 1285.60,364.77 1284.97,363.60C1284.23,362.23 1284.00,363.60 1284.00,369.47C1284.00,375.50 1283.87,376.33 1282.80,376.33C1282.60,376.33 1282.30,376.10 1282.20,375.80ZM1308.07,375.93C1307.77,375.63 1307.67,373.43 1307.67,368.13C1307.67,359.87 1307.77,360.17 1305.33,360.53C1303.40,360.83 1302.27,360.47 1302.40,359.57C1302.50,358.83 1302.60,358.83 1308.73,358.73L1315.00,358.67L1315.00,359.47C1315.00,360.47 1314.40,360.67 1312.17,360.50C1311.27,360.43 1310.33,360.53 1310.10,360.73C1309.77,361.00 1309.67,362.87 1309.67,368.30C1309.67,375.20 1309.53,376.33 1308.67,376.33C1308.57,376.33 1308.30,376.17 1308.07,375.93ZM1319.50,376.00C1319.33,375.73 1319.73,374.53 1321.50,370.00C1321.77,369.37 1322.50,367.40 1323.17,365.67C1324.43,362.27 1324.60,361.83 1325.43,359.93C1325.90,358.90 1326.17,358.67 1326.90,358.67C1327.97,358.70 1328.03,358.83 1330.47,365.27C1330.73,365.93 1331.63,368.23 1332.43,370.33C1334.33,375.13 1334.40,375.40 1334.00,376.00C1333.77,376.37 1333.53,376.40 1333.10,376.13C1332.50,375.77 1332.37,375.53 1331.47,373.40C1331.17,372.63 1330.80,372.00 1330.70,371.97C1329.93,371.83 1323.73,371.83 1323.37,371.97C1323.13,372.03 1322.57,372.90 1322.13,373.87C1321.27,375.83 1320.03,376.83 1319.50,376.00ZM1362.90,375.87C1362.67,375.27 1362.97,374.03 1363.57,373.17C1363.80,372.80 1364.00,372.27 1364.00,371.97C1364.00,371.63 1364.23,370.97 1364.47,370.43C1364.73,369.93 1365.67,367.63 1366.53,365.33C1368.97,358.80 1369.03,358.70 1370.10,358.67C1371.13,358.67 1371.20,358.77 1373.17,364.00C1373.83,365.73 1374.50,367.47 1374.63,367.83C1375.50,369.90 1375.77,370.57 1376.00,371.33C1376.17,371.80 1376.60,373.00 1376.97,374.00C1377.43,375.20 1377.53,375.93 1377.33,376.13C1376.80,376.67 1375.33,375.33 1374.83,373.87C1374.57,373.17 1374.23,372.43 1374.03,372.23C1373.87,372.07 1372.07,371.87 1370.03,371.80L1366.37,371.70L1365.70,373.13C1365.30,373.90 1365.00,374.70 1365.00,374.90C1365.00,375.33 1363.90,376.33 1363.43,376.33C1363.23,376.33 1363.00,376.13 1362.90,375.87ZM1388.17,375.47C1386.03,374.37 1384.60,372.77 1383.70,370.47C1382.87,368.23 1382.80,366.50 1383.57,364.60C1384.80,361.40 1387.10,359.30 1390.33,358.43C1392.33,357.93 1395.57,358.57 1397.47,359.90C1402.40,363.33 1402.60,370.70 1397.87,374.43C1396.07,375.87 1394.60,376.33 1391.97,376.33C1390.37,376.33 1389.43,376.10 1388.17,375.47ZM1169.67,374.10C1175.17,372.33 1176.10,364.73 1171.27,361.27C1170.33,360.60 1169.77,360.50 1167.33,360.50C1164.60,360.50 1164.40,360.57 1163.10,361.57C1158.83,364.97 1159.60,371.60 1164.47,373.87C1166.50,374.80 1167.37,374.83 1169.67,374.10ZM1395.33,373.73C1396.60,373.10 1397.47,372.37 1398.17,371.33C1399.07,369.97 1399.17,369.60 1399.13,367.27C1399.07,364.50 1398.83,363.90 1397.00,362.07C1394.93,360.00 1390.33,359.73 1388.03,361.57C1386.47,362.83 1385.03,365.47 1385.00,367.07C1385.00,370.03 1387.20,373.20 1389.93,374.10C1392.17,374.87 1393.27,374.77 1395.33,373.73ZM1081.90,373.93C1086.17,372.87 1087.90,367.37 1085.30,363.10C1084.17,361.27 1082.70,360.60 1079.43,360.47C1075.10,360.30 1075.33,359.90 1075.33,367.47C1075.33,371.00 1075.43,374.00 1075.57,374.10C1075.93,374.47 1080.27,374.37 1081.90,373.93ZM1329.87,369.63C1329.97,369.43 1329.83,368.73 1329.57,368.07C1329.30,367.37 1328.70,365.93 1328.30,364.83C1327.87,363.73 1327.33,362.63 1327.13,362.37C1326.63,361.83 1326.77,361.60 1324.97,366.23C1324.40,367.73 1324.00,369.20 1324.13,369.50C1324.27,369.90 1324.90,370.00 1326.97,370.00C1328.53,370.00 1329.73,369.83 1329.87,369.63ZM1372.80,369.00C1372.77,368.53 1372.43,367.33 1372.00,366.33C1371.60,365.33 1371.13,364.00 1370.97,363.40C1370.47,361.77 1369.73,362.17 1368.80,364.67C1368.33,365.87 1367.73,367.37 1367.43,368.07C1367.17,368.73 1367.03,369.43 1367.17,369.67C1367.30,369.90 1368.37,370.00 1370.10,369.93C1372.77,369.83 1372.83,369.83 1372.80,369.00ZM1193.03,366.70C1193.83,365.87 1194.00,365.43 1194.00,364.10C1194.00,362.73 1193.83,362.30 1193.07,361.60C1192.30,360.87 1191.77,360.73 1189.43,360.57C1187.70,360.47 1186.60,360.53 1186.37,360.77C1185.97,361.17 1185.83,367.07 1186.23,367.43C1186.33,367.57 1187.70,367.67 1189.23,367.67C1191.90,367.67 1192.10,367.60 1193.03,366.70ZM1122.87,366.93C1124.10,366.37 1125.07,364.20 1124.60,363.03C1123.80,360.83 1121.97,360.10 1118.30,360.53L1116.33,360.77L1116.33,363.83C1116.33,365.50 1116.43,367.00 1116.57,367.10C1116.93,367.50 1121.93,367.37 1122.87,366.93ZM1366.67,355.90C1366.67,354.87 1367.57,353.67 1368.33,353.67C1368.67,353.67 1369.53,354.00 1370.20,354.40L1371.43,355.13L1371.93,354.40C1372.93,352.90 1373.93,353.70 1373.33,355.50C1373.00,356.57 1372.83,356.67 1371.67,356.67C1370.97,356.67 1370.23,356.47 1370.00,356.17C1369.77,355.90 1369.33,355.67 1369.00,355.67C1368.67,355.67 1368.33,355.90 1368.20,356.17C1367.90,357.00 1366.67,356.80 1366.67,355.90ZM1337.83,317.50C1337.63,317.47 1336.37,317.23 1335.00,317.00C1326.13,315.50 1318.57,310.67 1312.93,302.90C1308.97,297.40 1308.27,295.43 1310.13,295.07C1310.83,294.93 1311.40,295.63 1313.27,299.03C1315.93,303.87 1322.07,309.63 1327.00,311.90C1332.13,314.27 1334.43,314.77 1340.50,314.77C1345.10,314.80 1346.13,314.70 1348.13,314.07C1357.83,310.97 1365.47,302.57 1371.60,288.33C1371.87,287.70 1372.23,286.87 1372.43,286.53C1372.60,286.17 1372.87,285.50 1373.00,285.03C1373.17,284.57 1373.60,283.33 1374.00,282.33C1374.40,281.33 1374.83,280.13 1375.00,279.67C1375.17,279.20 1375.60,278.00 1376.00,277.00C1379.10,269.00 1379.30,267.73 1378.03,264.67C1377.63,263.67 1377.17,262.47 1377.00,262.00C1376.83,261.53 1376.40,260.33 1376.00,259.33C1375.60,258.33 1375.17,257.13 1375.00,256.67C1374.83,256.20 1374.17,254.33 1373.50,252.50C1372.83,250.67 1372.17,248.70 1372.03,248.13C1371.87,247.53 1371.63,246.87 1371.47,246.63C1371.13,246.10 1370.67,244.87 1369.50,241.50C1369.07,240.20 1368.37,238.33 1368.00,237.33C1367.60,236.33 1366.93,234.43 1366.50,233.17C1366.07,231.87 1365.57,230.47 1365.40,230.00C1364.43,227.53 1363.93,226.23 1362.97,223.50C1362.40,221.83 1361.73,220.03 1361.50,219.50C1361.27,218.97 1361.00,218.20 1360.90,217.83C1360.80,217.47 1360.40,216.33 1360.00,215.33C1358.97,212.63 1358.40,211.10 1357.50,208.50C1357.07,207.20 1356.40,205.33 1356.00,204.33C1354.70,200.93 1354.30,199.83 1354.00,198.83C1353.80,198.30 1353.53,197.53 1353.37,197.17C1353.20,196.80 1352.73,195.60 1352.37,194.50C1352.00,193.40 1351.37,191.67 1351.00,190.67C1350.60,189.67 1350.10,188.23 1349.83,187.50C1349.60,186.77 1348.93,184.90 1348.33,183.33C1347.77,181.77 1347.17,180.13 1347.00,179.67C1346.83,179.20 1346.40,178.00 1346.00,177.00C1345.60,176.00 1345.17,174.77 1345.00,174.27C1344.47,172.53 1341.57,167.00 1340.13,164.93C1338.40,162.47 1335.73,159.67 1333.73,158.23C1332.97,157.67 1332.33,157.10 1332.33,156.93C1332.33,156.57 1369.57,156.60 1369.83,156.97C1369.93,157.13 1369.57,157.63 1369.07,158.07C1367.40,159.40 1366.10,161.43 1365.67,163.27C1365.10,165.77 1365.50,168.03 1367.50,173.50C1368.17,175.33 1368.83,177.20 1369.00,177.67C1369.17,178.13 1369.83,180.00 1370.50,181.83C1371.17,183.67 1371.87,185.63 1372.00,186.17C1372.17,186.70 1372.60,188.00 1373.00,189.00C1373.40,190.00 1373.87,191.37 1374.07,192.00C1374.27,192.63 1374.50,193.33 1374.60,193.50C1374.90,193.97 1376.63,198.93 1377.00,200.27C1377.13,200.87 1377.40,201.53 1377.60,201.77C1377.77,202.00 1378.00,202.53 1378.10,203.00C1378.20,203.47 1378.60,204.67 1379.00,205.67C1379.40,206.67 1379.80,207.80 1379.90,208.17C1379.97,208.53 1380.20,209.13 1380.37,209.50C1380.77,210.40 1381.63,212.93 1382.00,214.17C1382.33,215.33 1384.20,220.53 1384.63,221.50C1384.80,221.87 1385.03,222.47 1385.10,222.83C1385.20,223.20 1385.60,224.33 1386.00,225.33C1386.40,226.33 1386.87,227.70 1387.07,228.33C1387.23,228.97 1387.53,229.67 1387.67,229.83C1387.80,230.00 1388.00,230.53 1388.10,231.00C1388.40,232.40 1389.90,236.37 1390.30,236.77C1390.53,237.00 1390.67,236.97 1390.77,236.63C1390.83,236.37 1391.10,235.63 1391.30,235.00C1391.53,234.37 1391.83,233.37 1392.00,232.83C1392.30,231.70 1392.93,229.93 1393.50,228.50C1394.00,227.33 1394.43,226.00 1395.37,223.00C1395.77,221.80 1396.27,220.33 1396.53,219.73C1396.80,219.13 1397.00,218.43 1397.00,218.17C1397.00,217.90 1397.20,217.20 1397.47,216.60C1397.87,215.60 1399.30,211.17 1400.60,206.83C1400.87,205.93 1401.30,204.67 1401.53,204.07C1401.80,203.47 1402.00,202.73 1402.00,202.40C1402.00,202.10 1402.20,201.27 1402.47,200.50C1403.07,198.77 1404.07,195.37 1405.50,190.17C1405.80,189.07 1406.27,187.47 1406.53,186.63C1406.77,185.77 1407.00,184.80 1407.00,184.50C1407.00,184.17 1407.20,183.13 1407.47,182.20C1410.10,172.93 1411.90,161.97 1411.30,158.87C1411.13,157.97 1411.10,157.13 1411.20,156.97C1411.40,156.60 1431.00,156.57 1431.00,156.90C1431.00,157.03 1430.50,157.67 1429.87,158.33C1428.47,159.77 1425.57,164.07 1423.83,167.17C1423.13,168.47 1422.30,169.97 1421.97,170.57C1419.13,175.67 1412.83,188.83 1409.50,196.63C1408.47,199.10 1407.47,201.37 1407.33,201.63C1407.17,201.93 1406.37,203.90 1405.50,206.00C1403.97,209.70 1403.67,210.47 1402.57,213.00C1401.93,214.47 1400.10,219.07 1399.43,220.83C1399.17,221.57 1398.73,222.60 1398.47,223.10C1398.20,223.63 1398.00,224.27 1398.00,224.50C1398.00,224.73 1397.80,225.37 1397.53,225.90C1397.27,226.40 1396.80,227.50 1396.50,228.33C1396.20,229.17 1395.73,230.33 1395.47,230.93C1395.20,231.53 1395.00,232.30 1395.00,232.67C1395.00,233.00 1394.87,233.37 1394.67,233.50C1394.50,233.60 1394.20,234.17 1394.03,234.77C1393.87,235.37 1393.40,236.67 1393.00,237.67C1391.87,240.67 1391.33,242.03 1390.50,244.50C1390.07,245.80 1389.37,247.67 1389.00,248.67C1388.60,249.67 1388.17,250.97 1388.00,251.50C1387.87,252.03 1387.40,253.27 1387.00,254.17C1386.60,255.07 1385.90,256.87 1385.50,258.17C1385.07,259.47 1384.40,261.33 1384.00,262.33C1383.60,263.33 1382.93,265.20 1382.50,266.50C1382.07,267.80 1381.40,269.67 1381.00,270.67C1379.93,273.50 1379.37,274.97 1378.50,277.50C1378.07,278.80 1377.40,280.67 1377.00,281.67C1376.60,282.67 1376.20,283.80 1376.10,284.17C1375.97,284.53 1375.70,285.13 1375.43,285.50C1375.20,285.87 1375.00,286.33 1375.00,286.57C1375.00,287.00 1373.23,291.07 1372.63,292.00C1372.47,292.27 1372.23,292.73 1372.13,293.00C1371.20,295.30 1370.60,296.33 1367.27,301.50C1362.57,308.77 1356.30,314.00 1349.83,316.10C1346.23,317.27 1339.57,318.03 1337.83,317.50ZM786.17,268.70C784.90,268.60 783.67,268.40 783.43,268.23C783.23,268.10 782.40,267.87 781.60,267.70C776.63,266.63 771.43,263.67 767.50,259.67C764.23,256.37 761.83,252.47 760.57,248.50C758.90,243.17 758.87,243.03 758.87,236.33C758.90,228.00 759.53,224.73 762.50,218.50C767.00,209.03 775.83,202.80 788.33,200.20C791.67,199.53 799.37,199.23 803.50,199.60C809.10,200.17 813.77,201.90 817.17,204.70C819.23,206.40 819.50,206.87 819.03,207.87C818.50,209.03 817.93,208.87 815.83,206.90C814.10,205.23 813.30,204.77 809.37,203.13C807.17,202.23 798.97,202.23 796.37,203.13C793.57,204.10 790.70,205.93 788.60,208.07C786.03,210.67 784.57,212.97 782.60,217.50C782.07,218.73 781.30,221.83 781.00,223.83C780.83,224.93 780.53,226.87 780.37,228.17C779.87,231.47 779.93,234.63 780.50,239.40C781.53,247.97 784.07,253.87 788.23,257.60C791.23,260.30 794.03,261.50 799.07,262.30C801.43,262.70 806.77,261.97 808.60,261.03C808.90,260.87 809.83,260.47 810.67,260.13C813.60,258.93 819.00,255.23 820.43,253.43C821.33,252.30 822.33,251.83 822.70,252.37C823.23,253.20 822.63,254.80 821.20,256.30C819.63,257.93 814.23,262.13 812.00,263.43C809.10,265.10 804.07,267.17 800.83,268.00C797.43,268.87 791.63,269.17 786.17,268.70ZM1019.67,266.67C1015.60,266.37 1010.87,265.33 1008.07,264.13C1007.47,263.87 1006.77,263.67 1006.53,263.67C1005.80,263.67 1000.03,260.63 997.33,258.83C994.20,256.77 989.50,252.30 986.97,248.97C981.53,241.80 978.47,234.23 976.50,222.83C975.93,219.47 975.83,206.83 976.37,203.67C976.53,202.67 976.80,200.93 976.97,199.83C977.17,198.73 977.60,196.70 978.00,195.33C978.37,193.97 978.80,192.47 978.90,192.00C979.00,191.53 979.30,190.87 979.53,190.50C979.80,190.13 980.00,189.60 980.00,189.30C980.00,188.97 980.20,188.30 980.47,187.77C980.73,187.27 981.50,185.70 982.20,184.33C987.53,173.57 996.43,165.47 1007.50,161.27C1015.67,158.17 1027.40,157.30 1034.83,159.20C1038.60,160.17 1042.77,161.57 1043.67,162.17C1043.93,162.33 1044.77,162.80 1045.50,163.17C1048.30,164.60 1050.93,166.57 1053.70,169.30C1057.77,173.37 1060.40,177.57 1062.33,183.00C1063.13,185.23 1063.13,185.90 1062.33,186.33C1061.37,186.87 1060.80,186.33 1060.20,184.37C1059.60,182.37 1057.97,178.87 1056.87,177.23C1056.40,176.53 1056.00,175.87 1056.00,175.73C1056.00,175.60 1055.00,174.40 1053.80,173.07C1051.57,170.60 1048.77,168.30 1046.67,167.13C1046.03,166.80 1045.27,166.33 1045.00,166.13C1044.00,165.43 1040.37,164.03 1037.63,163.33C1034.07,162.43 1027.10,162.50 1023.67,163.47C1015.33,165.80 1008.37,172.13 1003.80,181.53C1002.80,183.57 1002.00,185.40 1002.00,185.60C1002.00,185.80 1001.80,186.47 1001.53,187.07C1000.77,188.93 1000.27,190.43 1000.00,191.83C999.83,192.57 999.57,193.83 999.37,194.67C997.23,204.30 996.90,216.47 998.53,226.33C999.30,230.90 1000.70,236.40 1001.53,238.10C1001.80,238.63 1002.00,239.20 1002.00,239.40C1002.00,239.57 1002.23,240.27 1002.53,240.93C1005.07,246.70 1008.43,251.77 1011.70,254.87C1016.77,259.57 1024.33,262.67 1030.83,262.67C1039.10,262.67 1048.10,258.47 1053.77,252.03C1056.77,248.57 1058.57,245.37 1060.40,240.17C1060.80,239.03 1061.00,238.83 1061.83,238.83C1062.77,238.83 1062.83,238.93 1062.80,240.00C1062.70,242.37 1059.90,248.27 1057.13,251.87C1051.33,259.50 1044.53,263.67 1034.00,266.13C1031.40,266.73 1024.07,267.03 1019.67,266.67ZM1174.17,266.70C1170.90,266.47 1167.60,265.87 1165.50,265.13C1164.73,264.87 1163.90,264.67 1163.60,264.67C1163.27,264.67 1162.47,264.43 1161.77,264.13C1161.07,263.83 1159.97,263.33 1159.33,263.07C1151.60,259.73 1145.47,255.03 1140.53,248.67C1139.03,246.70 1136.53,242.80 1136.00,241.57C1135.80,241.17 1135.53,240.60 1135.37,240.33C1135.23,240.07 1134.83,239.23 1134.50,238.50C1134.20,237.77 1133.70,236.77 1133.47,236.27C1133.20,235.80 1133.00,235.17 1133.00,234.87C1133.00,234.60 1132.80,233.87 1132.53,233.27C1129.37,225.70 1128.30,208.07 1130.53,200.13C1130.80,199.20 1131.00,198.10 1131.00,197.67C1131.00,196.23 1133.20,190.03 1135.13,186.00C1139.27,177.37 1146.03,169.93 1154.07,165.27C1163.77,159.60 1174.57,157.30 1186.17,158.47C1191.00,158.97 1191.87,159.13 1195.50,160.23C1197.80,160.93 1202.07,162.70 1202.70,163.23C1202.97,163.47 1203.33,163.67 1203.47,163.67C1203.93,163.67 1207.47,166.53 1209.07,168.20C1214.00,173.33 1216.03,178.47 1216.53,187.13C1217.23,198.57 1211.00,208.70 1200.00,214.00C1199.17,214.40 1198.23,214.87 1197.93,215.03C1195.33,216.40 1188.40,218.00 1182.67,218.50C1179.80,218.73 1171.40,217.90 1167.00,216.90C1159.53,215.20 1156.50,213.83 1156.90,212.37C1157.17,211.33 1158.20,211.20 1159.70,211.97C1160.43,212.37 1161.23,212.67 1161.50,212.67C1161.77,212.67 1162.47,212.87 1163.07,213.13C1164.43,213.73 1167.30,214.43 1171.00,215.13C1174.30,215.77 1185.67,215.87 1187.83,215.30C1188.57,215.10 1189.77,214.83 1190.50,214.70C1192.47,214.33 1194.17,213.73 1197.73,212.20C1198.33,211.93 1199.07,211.63 1199.33,211.53C1201.50,210.60 1205.07,207.87 1207.50,205.23C1210.13,202.43 1212.40,198.47 1213.53,194.67C1214.33,191.97 1214.33,184.13 1213.50,181.67C1211.70,176.20 1209.83,173.13 1206.27,169.87C1204.97,168.67 1203.77,167.67 1203.60,167.67C1203.43,167.67 1202.80,167.30 1202.23,166.87C1200.27,165.43 1198.00,164.50 1193.53,163.30C1190.50,162.50 1181.93,162.43 1179.83,163.17C1179.10,163.43 1178.13,163.67 1177.67,163.67C1177.20,163.67 1176.53,163.90 1176.20,164.17C1175.83,164.43 1175.37,164.67 1175.13,164.67C1173.93,164.67 1169.23,167.37 1166.50,169.67C1164.40,171.40 1161.00,175.03 1161.00,175.50C1161.00,175.63 1160.57,176.30 1160.03,176.97C1158.77,178.57 1156.00,183.80 1156.00,184.63C1156.00,184.97 1155.77,185.43 1155.50,185.67C1155.23,185.90 1155.00,186.37 1155.00,186.70C1155.00,187.03 1154.80,187.80 1154.53,188.40C1153.50,190.80 1152.40,195.67 1151.53,201.70C1150.47,208.93 1151.17,226.17 1152.67,230.13C1152.83,230.63 1153.00,231.43 1153.00,231.90C1153.00,233.63 1156.23,242.37 1158.20,245.87C1160.57,250.10 1165.10,255.23 1168.37,257.40C1171.03,259.13 1173.37,260.40 1174.50,260.70C1175.07,260.83 1175.93,261.10 1176.50,261.27C1180.80,262.73 1186.33,263.07 1190.30,262.17C1194.37,261.23 1197.30,260.27 1199.00,259.30C1199.27,259.13 1199.87,258.83 1200.30,258.67C1200.73,258.47 1202.23,257.50 1203.63,256.53C1209.03,252.70 1213.40,246.87 1215.50,240.60C1216.17,238.63 1216.77,238.23 1217.97,238.97C1219.13,239.70 1216.13,246.80 1212.73,251.33C1205.67,260.80 1194.47,266.37 1181.67,266.77C1179.20,266.87 1175.80,266.83 1174.17,266.70ZM861.33,265.73C860.67,265.50 861.03,264.80 862.10,264.23C864.73,262.80 867.30,259.67 868.30,256.67C868.70,255.40 868.83,251.07 868.97,230.30L869.17,205.43L870.67,203.77C872.43,201.80 883.63,190.03 887.40,186.20C889.07,184.50 890.13,183.67 890.33,183.87C890.53,184.07 890.67,197.73 890.73,220.17L890.83,256.17L891.63,257.67C893.00,260.30 894.87,262.47 896.77,263.67C898.53,264.77 899.17,265.67 898.27,265.67C893.10,265.77 861.57,265.80 861.33,265.73ZM939.97,265.60C939.63,265.47 939.33,265.30 939.33,265.20C939.33,265.13 940.00,264.67 940.80,264.20C942.43,263.23 945.33,260.20 946.17,258.57C947.60,255.83 947.67,254.27 947.67,230.00C947.67,207.00 947.27,196.17 946.33,193.00C946.17,192.37 946.00,191.43 946.00,190.97C946.00,190.47 945.80,189.33 945.53,188.47C945.27,187.57 944.73,185.80 944.37,184.50C941.60,174.90 936.73,168.13 930.30,164.93C926.57,163.07 924.40,162.60 920.50,162.73C918.67,162.80 916.63,163.07 916.00,163.30C910.97,165.17 906.63,168.23 901.27,173.73C898.53,176.57 897.20,177.70 896.83,177.53C896.07,177.27 896.40,175.20 897.37,174.07C899.90,171.20 908.40,163.67 909.10,163.67C909.23,163.67 910.03,163.23 910.90,162.73C911.77,162.20 913.33,161.53 914.33,161.20C915.33,160.87 916.53,160.43 917.00,160.27C917.47,160.07 919.63,159.77 921.83,159.57C927.63,159.07 934.70,159.67 938.83,161.07C939.40,161.23 940.30,161.50 940.90,161.67C944.47,162.53 951.47,166.83 955.27,170.47C959.30,174.27 963.13,180.33 965.40,186.50C966.50,189.43 966.73,190.23 967.00,191.50C967.13,192.23 967.40,193.50 967.60,194.33C968.93,199.77 969.00,201.47 969.00,228.03C969.00,252.50 969.03,253.93 969.63,255.83C970.00,256.93 970.53,258.30 970.80,258.87C971.63,260.50 973.87,262.87 975.70,264.03C977.30,265.10 977.73,265.67 976.93,265.67C963.10,265.83 940.47,265.77 939.97,265.60ZM548.50,264.37C548.40,264.17 548.67,263.87 549.07,263.63C550.70,262.80 553.90,259.67 554.77,258.03C556.77,254.37 556.67,258.73 556.67,185.57C556.63,115.80 556.63,116.00 555.30,113.67C553.83,111.10 550.47,107.67 549.40,107.67C549.03,107.67 548.57,106.67 548.80,106.43C548.87,106.37 572.13,106.27 600.50,106.23C650.70,106.20 652.10,106.23 652.53,106.83C652.80,107.17 653.00,107.83 653.00,108.30C653.00,109.03 653.20,109.80 654.53,114.47C654.80,115.33 655.00,116.30 655.00,116.60C655.00,116.87 655.20,117.87 655.47,118.80C655.73,119.73 656.20,121.43 656.47,122.60C657.80,127.80 658.10,128.93 658.60,130.57C659.37,133.03 658.83,133.43 657.10,131.77C646.27,121.50 632.73,112.87 623.33,110.23C617.60,108.63 617.57,108.63 598.17,108.73L579.83,108.83L579.83,148.67L579.83,188.50L587.17,188.60C594.53,188.73 610.27,188.00 615.67,187.27C617.23,187.07 619.77,186.80 621.33,186.67C627.47,186.13 636.40,184.37 639.27,183.13C639.87,182.87 640.60,182.67 640.87,182.67C641.17,182.67 642.07,182.20 642.90,181.67C643.70,181.13 644.67,180.67 645.03,180.67C645.63,180.67 645.67,180.97 645.67,190.00C645.67,197.83 645.60,199.33 645.20,199.33C644.93,199.33 643.60,198.73 642.20,198.00C640.83,197.27 639.43,196.67 639.10,196.67C638.80,196.67 637.93,196.47 637.17,196.20C635.90,195.77 633.37,195.20 628.83,194.33C627.73,194.13 625.50,193.80 623.83,193.63C622.17,193.47 620.10,193.17 619.23,193.00C618.37,192.80 616.83,192.67 615.83,192.67C614.83,192.67 611.63,192.43 608.77,192.17C605.67,191.90 598.60,191.67 591.67,191.60L579.83,191.50L579.83,223.17L579.83,254.83L580.80,256.80C581.90,259.10 584.53,262.03 586.57,263.23C587.37,263.70 587.90,264.20 587.80,264.37C587.57,264.77 548.77,264.77 548.50,264.37ZM663.53,264.37C663.43,264.20 663.97,263.70 664.73,263.23C666.53,262.20 668.80,259.90 669.87,258.13C671.73,255.00 671.67,256.33 671.67,212.73C671.67,169.33 671.70,170.30 669.90,167.27C668.93,165.60 665.33,162.10 664.13,161.63C662.33,160.97 663.53,160.17 666.83,159.83C668.10,159.70 670.30,159.40 671.67,159.13C673.03,158.87 674.60,158.67 675.17,158.67C675.73,158.67 677.23,158.47 678.50,158.20C679.77,157.93 682.63,157.47 684.83,157.17C687.03,156.87 689.70,156.47 690.77,156.27C691.83,156.07 692.73,155.97 692.83,156.03C692.90,156.13 693.00,164.03 693.07,173.60C693.13,184.90 693.30,191.00 693.50,191.03C693.67,191.03 693.93,190.60 694.07,190.10C694.17,189.60 694.60,188.33 695.00,187.33C695.40,186.33 695.83,185.10 696.00,184.63C696.13,184.17 696.40,183.50 696.60,183.13C696.77,182.80 697.20,181.90 697.53,181.17C699.67,176.67 703.63,171.10 707.23,167.60C709.43,165.47 713.53,162.67 714.47,162.67C714.70,162.67 715.43,162.47 716.03,162.20C716.67,161.97 718.53,161.67 720.17,161.53C724.93,161.20 729.83,161.90 738.00,164.00C738.83,164.20 739.87,164.43 740.33,164.53C741.83,164.83 744.83,165.83 745.03,166.10C745.33,166.50 744.67,169.90 743.47,174.13C743.20,175.00 743.00,176.07 743.00,176.50C743.00,176.90 742.77,177.90 742.50,178.67C742.23,179.43 742.00,180.43 742.00,180.90C742.00,182.97 740.57,183.50 740.17,181.60C739.17,177.17 734.37,171.17 729.93,168.87C726.50,167.07 724.37,166.63 719.90,166.73C715.70,166.87 715.17,167.00 711.33,168.80C708.80,170.00 705.17,173.40 703.17,176.50C701.63,178.87 698.00,185.87 698.00,186.50C698.00,186.73 697.80,187.37 697.53,187.90C697.07,188.87 696.47,190.73 695.57,194.00C693.47,201.83 692.97,209.33 693.00,233.27C693.03,250.63 693.10,252.23 693.67,254.57C694.57,257.97 696.47,260.67 699.40,262.63C700.63,263.47 701.53,264.27 701.47,264.40C701.23,264.77 663.77,264.73 663.53,264.37ZM1077.83,264.33C1077.73,264.17 1078.13,263.77 1078.70,263.47C1080.17,262.73 1082.90,260.13 1083.97,258.50C1084.43,257.77 1085.07,256.43 1085.40,255.50C1085.97,253.97 1086.00,251.37 1086.00,212.67C1086.00,173.90 1085.97,171.37 1085.40,169.83C1084.17,166.40 1082.00,163.63 1079.47,162.13C1077.37,160.90 1077.60,160.23 1080.17,159.90C1081.27,159.77 1083.07,159.50 1084.17,159.30C1085.27,159.07 1087.13,158.80 1088.33,158.67C1089.53,158.53 1091.63,158.23 1093.00,158.03C1103.77,156.30 1106.97,155.87 1107.23,156.13C1107.40,156.27 1107.57,178.60 1107.67,205.77L1107.83,255.17L1108.80,257.00C1110.00,259.23 1112.67,262.10 1114.57,263.23C1115.37,263.70 1115.90,264.20 1115.80,264.37C1115.57,264.77 1078.10,264.77 1077.83,264.33ZM1230.20,264.37C1230.10,264.20 1230.63,263.70 1231.43,263.23C1233.47,262.03 1236.10,259.10 1237.20,256.80L1238.17,254.83L1238.17,185.50C1238.17,117.03 1238.17,116.13 1237.50,114.67C1236.17,111.63 1234.13,109.30 1231.23,107.43C1229.73,106.50 1229.77,105.87 1231.37,105.77C1232.00,105.70 1233.87,105.47 1235.50,105.20C1237.13,104.93 1239.57,104.53 1240.83,104.33C1242.10,104.10 1244.40,103.80 1245.93,103.67C1247.43,103.50 1248.83,103.27 1249.00,103.17C1249.20,103.03 1250.50,102.83 1251.93,102.67C1253.33,102.50 1255.50,102.20 1256.70,101.97C1257.90,101.73 1259.13,101.63 1259.43,101.77C1259.97,101.97 1260.00,107.23 1260.00,177.93C1260.00,249.97 1260.03,253.93 1260.60,255.50C1261.73,258.70 1264.03,261.50 1266.93,263.20C1267.70,263.67 1268.23,264.20 1268.13,264.37C1268.03,264.53 1260.03,264.67 1249.17,264.67C1238.30,264.67 1230.30,264.53 1230.20,264.37ZM1280.53,264.37C1280.43,264.20 1281.03,263.67 1281.87,263.17C1285.13,261.27 1287.37,258.30 1288.33,254.57C1288.97,252.23 1289.00,249.97 1289.00,185.53C1289.00,123.90 1288.97,118.77 1288.43,116.53C1287.70,113.43 1285.87,110.77 1282.73,108.23C1281.40,107.17 1280.40,106.13 1280.50,105.97C1280.63,105.80 1281.50,105.67 1282.43,105.67C1283.40,105.67 1285.00,105.43 1286.00,105.17C1287.00,104.90 1288.33,104.67 1288.97,104.67C1289.60,104.67 1291.40,104.43 1292.97,104.17C1294.53,103.90 1297.27,103.47 1299.00,103.20C1300.73,102.93 1303.30,102.53 1304.67,102.30C1306.03,102.07 1307.83,101.87 1308.67,101.87L1310.17,101.83L1310.33,178.00C1310.47,230.40 1310.63,254.53 1310.87,255.33C1311.07,255.97 1311.47,256.97 1311.77,257.53C1312.60,259.13 1315.60,262.27 1317.20,263.20C1318.00,263.67 1318.57,264.20 1318.47,264.37C1318.37,264.53 1310.37,264.67 1299.50,264.67C1288.63,264.67 1280.63,264.53 1280.53,264.37ZM822.90,222.40C822.83,209.37 822.63,199.63 822.37,197.17C821.93,192.73 821.17,187.53 820.63,185.50C820.43,184.77 820.17,183.57 820.03,182.83C819.90,182.10 819.60,181.17 819.40,180.77C819.17,180.37 819.00,179.80 819.00,179.50C819.00,179.20 818.77,178.40 818.47,177.73C818.17,177.03 817.60,175.83 817.23,175.00C816.20,172.70 813.40,168.77 811.73,167.33C809.90,165.70 807.20,163.97 805.67,163.37C803.33,162.50 798.80,161.67 796.50,161.67C791.40,161.67 783.67,164.00 779.57,166.80C778.87,167.27 778.23,167.67 778.13,167.67C777.70,167.67 774.00,170.80 772.13,172.73C770.23,174.70 767.00,178.73 767.00,179.13C767.00,179.23 766.57,180.03 766.07,180.90C765.03,182.70 764.37,184.23 763.30,187.27C762.70,188.97 762.43,189.33 761.83,189.33C761.43,189.33 760.90,189.10 760.67,188.83C760.27,188.33 760.50,187.20 761.50,184.83C761.73,184.30 762.20,183.17 762.53,182.33C763.67,179.63 766.27,175.53 768.77,172.67C771.07,170.00 775.90,165.90 778.23,164.70C782.07,162.73 784.00,161.87 786.33,161.17C787.33,160.87 788.60,160.47 789.17,160.30C792.63,159.20 803.93,159.17 808.17,160.20C813.10,161.43 814.70,161.93 817.50,163.17C820.63,164.53 821.57,165.07 826.00,167.97C828.17,169.40 832.23,173.37 834.37,176.17C835.70,177.90 836.30,178.83 838.23,182.17C838.97,183.43 840.00,185.77 840.00,186.13C840.00,186.37 840.13,186.67 840.30,186.87C840.73,187.27 841.80,190.60 842.50,193.67C842.80,195.03 843.27,197.07 843.57,198.17C843.93,199.67 844.10,202.90 844.23,210.87L844.43,221.57L843.13,223.03C841.80,224.57 838.53,227.97 831.13,235.67C828.73,238.13 826.07,240.97 825.17,241.93C824.27,242.87 823.43,243.67 823.30,243.67C823.17,243.67 823.00,234.10 822.90,222.40ZM911.37,226.20C906.07,220.90 905.30,220.00 905.60,219.47C906.20,218.37 917.17,207.67 917.67,207.67C918.23,207.67 930.00,219.30 930.00,219.83C930.00,220.17 917.93,232.33 917.63,232.33C917.57,232.33 914.73,229.57 911.37,226.20ZM262.27,214.70C262.50,214.03 250.97,204.10 246.50,201.10C245.60,200.50 243.93,199.33 242.83,198.50C234.97,192.67 220.60,185.03 210.17,181.10C209.43,180.83 208.33,180.40 207.73,180.13C207.13,179.87 206.37,179.67 206.07,179.67C205.73,179.67 205.33,179.53 205.13,179.40C204.97,179.23 203.70,178.77 202.33,178.33C200.00,177.63 199.20,177.40 195.93,176.37C193.23,175.50 187.80,174.13 185.33,173.70C184.50,173.57 183.40,173.27 182.90,173.03C182.37,172.83 181.57,172.67 181.10,172.67C180.60,172.67 179.47,172.47 178.53,172.20C176.37,171.60 173.37,171.00 171.00,170.67C170.00,170.57 168.27,170.27 167.17,170.07C164.03,169.50 160.40,168.97 157.67,168.67C156.30,168.53 153.90,168.23 152.33,168.07C141.70,166.70 132.10,166.20 115.00,166.20C99.40,166.17 91.03,166.43 84.10,167.20C81.67,167.47 78.80,167.67 77.70,167.67C76.63,167.67 74.53,167.90 73.10,168.17C71.67,168.43 69.83,168.67 69.03,168.67C68.20,168.67 66.33,168.90 64.87,169.17C63.37,169.43 61.63,169.70 61.00,169.73C60.37,169.80 59.83,170.00 59.83,170.23C59.83,170.90 70.63,179.33 74.27,181.50C74.57,181.67 75.37,182.23 76.00,182.70C77.53,183.80 84.53,188.03 89.17,190.63C92.60,192.57 102.73,197.67 103.13,197.67C103.23,197.67 104.27,198.10 105.40,198.63C108.43,200.00 113.30,201.97 116.67,203.17C119.53,204.17 120.23,204.40 121.17,204.67C121.70,204.80 122.53,205.07 123.00,205.27C123.47,205.43 124.73,205.87 125.83,206.17C126.93,206.50 128.43,206.97 129.17,207.20C129.90,207.40 131.40,207.83 132.50,208.10C139.37,209.83 141.57,210.37 145.67,211.17C147.23,211.47 149.27,211.87 150.17,212.07C151.07,212.23 152.97,212.53 154.33,212.70C155.70,212.83 157.50,213.13 158.33,213.30C159.17,213.50 160.73,213.63 161.87,213.67C163.00,213.67 164.33,213.83 164.87,214.00C167.33,214.87 184.20,215.17 223.00,215.07C244.53,215.00 262.20,214.83 262.27,214.70ZM1093.30,137.70C1090.57,137.13 1087.17,134.27 1085.63,131.27C1084.57,129.23 1084.53,124.20 1085.57,122.00C1087.17,118.57 1090.27,116.23 1094.33,115.37C1097.50,114.70 1101.60,116.00 1104.20,118.50C1105.53,119.73 1106.93,122.50 1107.33,124.53C1108.03,128.03 1107.00,131.37 1104.40,134.33C1102.37,136.63 1100.27,137.67 1097.10,137.83C1095.67,137.90 1093.97,137.87 1093.30,137.70Z" fill="#B76E79" fill-rule="evenodd"/></svg>