<svg xmlns="http://www.w3.org/2000/svg" aria-label="Francielly Costa" viewBox="0 0 1431 544"><title>Francielly Costa</title><path fill="#b76e79" fill-rule="evenodd" d="M212.2 543.8c0-.1-.2-22.5-.2-49.8 0-46-.4-142.4-1-215.7l-.2-31.1-20.3-.2c-11.7-.2-21.6-.4-23.3-.6l-5.2-.6a217 217 0 0 1-24.1-3.6l-4.4-1-6.3-1.5a85.1 85.1 0 0 0-5.9-1.5 201 201 0 0 1-20.5-6.9l-7.7-3.2-2.2-.9c-4.7-2-17-8.3-22.2-11.4l-5.3-3.2-1.4-.8a245 245 0 0 1-24.4-18.1 162 162 0 0 1-31.2-35l-4.7-6.5-1.4-1.8q-.3-.1-.3-.9c0-.7.3-.8 2.6-1.3l9.7-2 4.8-1 5.2-1 12.7-2.6 8.3-1.4a192 192 0 0 1 12.9-2q13.6-2.2 38-4a589 589 0 0 1 53.7.4c2.8.2 5.2.4 5.4.6l3.8.5a95 95 0 0 1 11.7 1.5 211 211 0 0 1 26.4 5.5c2.1.4 4.2 1 5.4 1.5q1 .5 1.8.5.7 0 1.6.5.8.4 1.7.5t1.4.5q.7.4 1.5.5t1.5.5c.9.6 2.4.6 2.7 0l.2-1.8a221.3 221.3 0 0 1 4.5-21.4l1-3.5 1.5-4.7A160.3 160.3 0 0 1 272.3 41c2.5-2.3 18.2-13 21.2-14.4q.7-.3 1.3-.7a186.2 186.2 0 0 1 45-18.8l9.8-2.4 2.7-.5a48 48 0 0 1 10.8-2c3.5-.7 10.2-1.4 16.9-1.9a552 552 0 0 1 62 1.9c8.4.6 23.7 2 31.8 3l5.9.6L496 7.7c2 .1 4 .4 4.3.5.7.2.8 1.2.1 1.8q-.5.3-.5.7l-3.5 6.1c-2 3.2-3.5 6-3.5 6A332 332 0 0 1 479.2 45c-1.5 2.3-7.7 10.5-12.2 16.2a269 269 0 0 1-59.6 55.4l-1.7 1.2q-1.2.9-2.4 1.5l-5.2 3.2-1.8 1a204 204 0 0 1-40.6 17.8 96 96 0 0 1-11.9 3c-4.8 1.3-12 2.5-22.5 3.8-4 .5-19.3.8-19.6.5a35 35 0 0 1 1.1-9 35 35 0 0 1 9.2-15.2 35 35 0 0 1 18-9.6 156 156 0 0 0 29.3-8.5l2.5-1 2.7-1.2a180.4 180.4 0 0 0 40-24.8A244 244 0 0 0 428 57.3l4-4.3a171 171 0 0 0 14.6-18c-.3-.3-8.8-1.2-18.4-1.8a293 293 0 0 0-63.7 1L354 36.2l-6.8 1.9a164 164 0 0 0-32.9 13.1l-3 1.8-4.4 2.5-2.5 1.5-3.7 2.6-4 2.9a130.3 130.3 0 0 0-53.1 95.5c-.3 1.6-.4 3-.3 3.1q.3.3 1.5 1 4.4 2.3 14 8.5 3.6 2.2 13.5 9.9c9.7 7.5 21.2 19.4 30.5 31.5l2.4 3 10.5.2a4795 4795 0 0 0 65.8.5 35 35 0 0 1 18.5 8.5 36 36 0 0 1 9 14.7q0 .6.5 1.8t.4 4.1v2.9h-28.4c-15.6-.1-34.9-.2-42.9-.4l-14.6-.2v.9q0 .9.5 1.8l2 4.6 1 2.8 1 2.9 1.5 4a56 56 0 0 1 2.5 8.2l1.9 6.6a38 38 0 0 1 1.2 5.5 48 48 0 0 1 1.9 9.6c2.3 10.2 4 35.3 3.2 47.4l-.7 10.3a96 96 0 0 1-1 9.8c0 1.4-.4 4.3-1.4 9.6l-.6 3.6-1.5 7.9-1 4.5-1 4.4-1 3.5-2 7.5a68 68 0 0 1-2.6 7.9L326 416l-1 2.7-1 2.6-1 2.7-.6 1.5-1.9 4.5-1.2 2.5q-.3.3-.3.8a314 314 0 0 1-9.9 19.7 281 281 0 0 1-17.6 26.8l-3.4 4.4a196.2 196.2 0 0 1-59.5 50.4l-6.4 3.9-2 1.2-2 1.2-2.6 1.6q-2.9 1.8-3.4 1.3m38.5-65.5a197 197 0 0 0 28.2-36.6l2.8-5c2-3.5 7-13.4 8.6-17l4.3-10.5a87 87 0 0 0 3.9-11.3 144 144 0 0 0 4.8-17.2l.6-2.5c.2-1.2.8-4.4 1.6-7.7.3-1.3.5-3 .5-3.7l.3-2.5.7-3.8.6-5.3c1.7-13.1 1.7-31.7 0-44.4l-.6-5.1a119.4 119.4 0 0 0-4-20.2 96 96 0 0 0-4.5-14.9l-1-2.6a156 156 0 0 0-8-17.7c-2-3.7.8-3.3-24.3-3.2h-22v38.2c0 47.9.8 198.4 1 198.8a30 30 0 0 0 6.5-5.8m362.5-36-3.7-.4a74 74 0 0 1-20.4-5.8 68 68 0 0 1-33-31.4 80 80 0 0 1-8.2-38.5c0-11 0-11.5 1.7-19.9a81 81 0 0 1 6.4-18.8c0-.3 4.4-7.5 5.6-9a56 56 0 0 1 7.8-9c4-4 6.3-5.8 10.3-8.4a79 79 0 0 1 24.6-9.9c5.7-1.1 8.6-1.4 18.4-1.4 9.3 0 10.9.1 17.6 1.2l4 .6 3.2.7 3.8.9c2.6.5 5.5 1.3 7.2 1.9l2.4.6 2.1.6 5.3 1.6c.5.1.4.5-.3 4.1l-1.5 6.5-1.5 6.3-1 4.5-.9 4.3q-.1 1-.6 1c-.3 0-1.5-2.4-1.5-3.2q0-.6-.5-1.3a139 139 0 0 0-5.6-10 40.7 40.7 0 0 0-39.2-18 49 49 0 0 0-15.4 4.7 47 47 0 0 0-19.6 21 93 93 0 0 0-5.2 13.5l-1 3.7-.5 2.4-.5 2.7c-1.4 6.4-2.7 22-2.4 29a169 169 0 0 0 2.4 23.4 75 75 0 0 0 4 14.6l1.2 2.9a52.4 52.4 0 0 0 17.4 22.9 53 53 0 0 0 11.4 5.4c8 2.7 20.3 2.7 30.5-.2a50 50 0 0 0 27.3-19c2.7-4.2 5.1-9.9 6-14.2q.5-3 2-2.4c1.1.3 1 1.3-.9 7.3a33 33 0 0 1-3.2 7.3 53 53 0 0 1-15.9 16.7l-1.5.8a59 59 0 0 1-38.6 7.7m109.5-.2a52 52 0 0 1-18.7-6.6 47.5 47.5 0 0 1-21.5-29.2A48 48 0 0 1 681 391a62 62 0 0 1 1.1-12.2 48 48 0 0 1 39.2-37.7c2.5-.7 14.7-.7 18.9 0a57 57 0 0 1 17.5 6.6c2.4 1.4 6.3 4.5 8.6 6.8a51 51 0 0 1 11.8 20.2l.6 2.1a63 63 0 0 1-1.4 34A47 47 0 0 1 739 442a70 70 0 0 1-16.3.1m93.6 0a36 36 0 0 1-16.7-7 39 39 0 0 1-6.6-8l-.9-2a9 9 0 0 1-.9-3.4c0-1.4 0-1.5.8-1.5q.8 0 1 .8a27 27 0 0 0 19.9 17c.4.4 4 1 8.2 1.2 9.6.7 18.7-3.2 21.9-9.3 1-2 1.1-2.2 1.1-5.6 0-3.1-.1-3.7-1-5.8-2.6-6.1-8.1-11.2-23.4-21.4a135 135 0 0 1-19.8-14.4q-3.9-3.7-5.8-7.7c-1.9-4-2.2-5.4-2-10.3 0-4.1.2-4.8 1-6.9q5-12.4 22.6-16.7a64 64 0 0 1 21.5.9q.2.3 1.1.5c.6.1 2.3.9 3.9 1.7l3 1.3q.4-.3-1.2-2.7l-2-3.3a50 50 0 0 1-5.5-13.7 33 33 0 0 1 .5-13.3c.7-3.8 4-9.5 7.1-12.4s8-5.8 11.9-6.9c6-1.7 5.6-1.6 12-1.4 5 .1 6.6.3 8.5.9l3.2.9q.9 0 1.3.6t.8.5c.7 0 2.9 1.2 5.2 3a28 28 0 0 1 10.2 14.1l.9 2.4.2 12.9c0 7.1.1 13 .2 13l14.5.2 14.5.2v2l-14.5.2-14.5.1-.1 34.9c-.1 35.5 0 43 1.1 45.6q.5 1 .5 1.7c0 1 2 5 3.3 6.8 2.6 3.4 6.5 5 10.6 4a11 11 0 0 0 5.7-2.5c2.8-2.2 4.9-5.3 7-10.7q.9-2.6 2-1.5.7.7-.3 3.6a28.5 28.5 0 0 1-10.2 14l-2 1a30 30 0 0 1-24.1.3 25 25 0 0 1-13-18.8c-1-5.9-1-9-1-42.9v-35.5l-7.9-.1-8-.2v-1c0-1 .1-1 2.2-1.4l3.6-.4 2.3-.4 2.1-.6c3-.7 8.5-3.3 12.1-5.7 2.3-1.5 5.4-4.4 6.9-6.4 1.8-2.3 3.3-6.6 3.3-9.4 0-3.8-1.7-9.2-3.8-12.1-2-2.7-6.4-6.5-8.5-7.4l-1.3-.6q-3.2-1.9-6.5-2.4l-3.7-.7q-3.5-.7-10.1.4c-3.2.6-4.2 1-7.3 2.3l-2.2 1a24.7 24.7 0 0 0-12.2 16.8 29 29 0 0 0 1.7 17.2 69 69 0 0 0 5.3 9.8l3 4.7a96 96 0 0 1 5.8 9.6c2.6 5.5 2.8 6.7 1 6.7-.8 0-1-.2-1.8-2.2a24 24 0 0 0-10-12 30 30 0 0 0-16.7-4.5c-4.5-.2-5.6-.1-7.9.5a18 18 0 0 0-9.2 4.8c-2.1 2.2-2.8 3.6-3.1 6.3-.2 1.8.6 5 1.7 6.8 1.6 2.6 2.5 3.7 5.1 6.1 3.1 2.9 4 3.6 10.8 8.2l14.1 9.7a60 60 0 0 1 20 19.3c2 4.2 2.3 5.5 2.3 10.3 0 3.9-.1 4.7-.9 7.1-2.4 7-8.5 13-16.9 16.3l-2.6 1q-1 .5-1.6.5l-2.2.4c-5.2 1.5-14.9 2-20.6 1m150.5.4-2.8-.5a34 34 0 0 1-11.7-4.4 30 30 0 0 1-10.4-12.1l-.9-2.7a40 40 0 0 1-1.7-11.1c0-16.1 8.3-28 22.7-32.5a59.3 59.3 0 0 1 16.8-2.3c7.8.7 12.7 2.5 16.5 6.1 1.2 1.2 1.3 2.4.1 2.6q-.6 0-2.2-1.3a20 20 0 0 0-12.8-4.6c-2.6 0-6.4 1-8.9 2.4s-6 5-7.2 7l-1.4 2.7q-.7 1.5-2.4 7.5c-1 3.2-1 15.4 0 19.2 1.4 6.2 3.3 10 6.6 13.1q6.2 6.1 16.7 4.1c5.8-1 13.4-6.2 17-11.6l1.4-1.9V400c0-19.5-.1-23-.6-26.9a96 96 0 0 0-1.6-9.1 35 35 0 0 0-6.7-14.5 23 23 0 0 0-5.6-4.4 24 24 0 0 0-10.2-2.3c-2.5 0-7.2.9-9.8 1.8a37 37 0 0 0-18.7 16.2l-.4 1a128 128 0 0 0-2.7 6.4c-.2.6-1.1.7-1.8.3q-.6-.1-.1-1.9l.6-2.1 1-2a37.3 37.3 0 0 1 26.1-21.2 54 54 0 0 1 18.3.5c.5 0 1.9.4 3.2.8a50 50 0 0 1 12.1 6.1q5.4 4 9.2 9.7c3.4 5.1 5 9 6.8 16.5.9 3.6 1.1 8.1 1.3 30l.2 22.7 1.3 2c.7 1.1 2 2.8 3 3.6l2.5 2.3q1.5 1.3-1.4 1.3c-.7 0-2.6.2-4.2.5l-6.3 1-5.7.9-4.5.6-3.5.5q-1.1.1-1.5-.1c0-.2-.2-3.1-.2-6.6 0-4.5-.1-6.2-.4-6.2a71.2 71.2 0 0 1-11.7 9.6c-.8.4-5.2 2.6-6.7 3.2a39 39 0 0 1-16.7 2.4M734 440a21 21 0 0 0 9.3-3.2c1.2-.6 4.3-3.2 5.7-4.8a39 39 0 0 0 7.7-14.2q.3-.2.3-1l.3-1.5a40 40 0 0 0 1.7-7.8l.6-4.5c.6-3.5.5-19.5-.1-23.8a69 69 0 0 0-6.5-21.7 31 31 0 0 0-11.8-12.3l-2-.9-3.3-1c-3.3-.8-7.5-.8-9.8-.1l-2.2.5a28 28 0 0 0-16.3 15.2 43 43 0 0 0-4.1 11 100 100 0 0 0 .9 47.3l.6 2c.4 1.4 2.7 6.5 3.8 8.3.6 1 3 4.2 3.9 5.2 1 1 4.2 3.7 5.1 4.2 3.7 2 5 2.4 8.2 3 3.3.5 4.7.5 8 0m426.8-18.5q-.6-1 1.6-1.1 2.6-.6.6-1.5-.9-.4-1-.9-.1-1.3-1.6-1.3-1.7-.1-4-2.2a9 9 0 0 1-1.3-11.8c1.6-2.4 4.7-4 7.6-4 3 0 7.5 2.5 7.2 4.1-.1 1-1.2 1-2.4 0q-2.2-2.2-4.8-2.1c-3 0-6 2.1-6.7 4.6-1 3.5 0 6.8 2.7 8.5 1.3.9 1.7 1 3.9 1q3.7 0 5.2-2.1 1-1.3 1.7-.7 1 .9-.4 2.4c-1.1 1-3.5 2.3-4.4 2.3q-1.6 0 .1 1.4 2 1.3.6 2.8c-.8 1-4.3 1.5-4.6.6m-88.7-5.4q-.2-.5.3-1.7l1-2.7q4.6-11.8 5.1-12.3c.7-.8 2.1-.2 2.4.9l1.2 3.4 1.5 3.8q.4 1.2 1 2.2l.4 1.5q0 .7.5 1.3t.5 1.3.5 1.3c.6.8.3 1.6-.7 1.6q-1 0-2-3.3c-.2-.9-1.2-1.1-5.3-1-2.5 0-3.3.2-3.4.6q0 .6-.6 1.5l-.6 1.6c-.3.7-1.5.8-1.8 0m25.7.3c-.2-.1-.8-1.4-1.3-2.9l-1.1-3-.5-1.2-.9-2.6a43 43 0 0 1-2.3-7.1c0-.9 1.2-.8 1.8.1q.5 1 1.1 2.8l3.5 9.6q.3 2.2 1.9-2l3.7-10c.6-1.1 1.8-1.5 2-.7.2.4-1.8 6-5.1 14.8l-.7 1.9c-.2.6-1.4.8-2.1.3m13-.9q.2-1.2.7-2.3l3-7.5 1-2.5.8-2.4q.4-1 1-1.7c.7-.5.7-.5 1.3 0q.7.7 1 1.7l5 12.6c1 2.6 1 3.3-.2 3.2q-1 .1-1.4-1.6c-.9-2.6-1-2.7-4.9-2.6-2.1 0-3.7.2-4 .4q-.6.6-1.1 2c-.4 1.5-.6 1.7-1.5 1.8s-.9.1-.7-1.1m22.1 1c-.3-.4-.3-16.6 0-17.1q.7-1.5 3.7 2.8a56 56 0 0 1 4.1 6.1l2 3q.7.9 1 .9c.1-.1.3-3 .3-6.4 0-6.4.2-7.3 1.3-6.6.5.3.5 1.2.5 8.8 0 8 0 8.5-.6 8.6-.9.2-1.5-.5-5.7-6.8a35 35 0 0 0-4.3-5.7q-.3.1-.5 6.3c-.2 5.8-.2 6.1-.9 6.2zm43.3-.2q-.2-.4.3-1.1t.5-1.3l1-3c1-2.2 1.4-3.4 2.5-6.2l2.2-5.3q.4-.4 1.1-.4c.8 0 1.1.6 4 8.3l2.7 7q1.2 2.5-.4 2.3c-.7 0-1-.4-1.6-2.1l-.7-2-2.8-.1c-4-.2-5.6.1-5.8 1q-1 3.3-2 3.3t-1-.4m22.3.1c-.2-.4-.3-16.6 0-17q.2-.4 4-.4c5.6 0 7.8 1 10 4.5.5.8.7 1.6.7 4.2 0 3.5-.4 4.6-2.3 6.6-1.8 1.9-3.4 2.4-8.1 2.4a20 20 0 0 1-4.3-.3m20.6-.3c-.2-.4 0-1 1.4-3.9q.5-.9.5-1.4c0-.2.4-1.4 1-2.6l1-2.6.5-1.4 1-2.5c.9-2.4 1-2.5 2-2.5s1.1.2 2 2.3l1 2.7 3 8c1.7 4 1.8 4.5.5 4.5-.7 0-2-2.2-2-3.2 0-.8-1-1-4.8-1-2.9 0-3.7.1-3.9.5l-1 2c-.6 1.7-1.8 2.2-2.2 1.1M1208 414c2.8-1.4 4.1-5 3.2-8.2-1.1-3.7-3-4.8-7.7-4.8h-3.2v6.6c0 3.6.1 6.7.3 6.8 0 .2 1.5.3 3.1.3 2.3 0 3.3-.2 4.3-.7m-126-3.6c.4-.3.3-.7-1.9-6.7q-.7-2.5-1.6.2c-1 3-1.6 4.3-2 5.2q-.5.9-.3 1.3c.2.3 5.1.4 5.8 0m38.8-.7q0-1-.6-2.2l-1.1-3q-1-2.7-1.7-1.1l-.9 2.3-1 2.7c-1 2-.6 2.3 2.6 2.2 2.7-.1 2.7-.1 2.7-1m66 .6q.2-.3-.3-1.2l-1.4-3.4-1.2-3q-.7-.7-.9.8 0 .7-.3 1-.4.3-.7 1.3l-.8 2.5c-.8 2.2-.7 2.4 2.6 2.4 1.6 0 3-.2 3-.4m42.7 0-.5-2-1.4-3.9q-1.2-3.2-1.7-1.3l-.9 2.6c-1.3 3.3-1.6 4.4-1.5 4.7.3.4 5.7.3 6 0m117.6-29.1c-.2-.7.5-1.5 1.1-1.3.7.3 2.1-.2 2.1-.7q0-.5-.8-.7t-1.3-1.1q-.3-.9-2-1.4c-.9-.3-2.3-1.1-3-1.8-4.2-3.5-4.3-10-.4-13.5 2.2-1.9 3.1-2.2 6.4-2.2 2.9 0 3.1 0 4.7 1.1q3.2 2.3 2.4 3.2c-.6.8-.9.7-2.5-.8s-3-1.8-5.8-1.6q-3.5.2-5.1 3.5a7.4 7.4 0 0 0 1.2 8.7c1 1 3.5 2 4.8 2 1.6 0 3.8-.9 5-2.1s1.4-1.3 2.2-1 .7.7-.3 2c-1.1 1.2-3 2.5-4 2.5-.8 0-1.9 1-1.3 1.2q1.2.6 1.7 1.7.3.8-.8 1.8c-.8.8-1.3 1-2.6 1q-1.5 0-1.7-.5m-181.3-4.9c-2.4-.7-2.9-.9-4.2-2a10 10 0 0 1-3.3-6.1 9 9 0 0 1 5.3-9c1.6-.9 2.1-1 4.5-.8 2.2.2 2.9.4 4.2 1.3a9 9 0 0 1 .9 14.6c-2 1.8-5.2 2.7-7.4 2m55.2 0a9 9 0 0 1-7.2-6.9c-1-3.6.6-7.5 4-9.8 1.6-1 1.8-1.1 4.7-1.1 2.7 0 3.2.1 4.5.9q3 1.9 3 3.1-.6 1.6-2.5-.3c-2.1-2.1-6.6-2.5-9-.8-2 1.6-2.6 2.8-2.8 5.5-.2 4 1.2 6 4.9 7.2 2.9 1 6.4 0 7.7-2.2 1.3-2 1.1-2.2-2.6-2.3-3.2-.1-3.2-.1-3.2-1v-.8h4.3c4.9-.2 4.8-.2 4.2 2.7a8 8 0 0 1-5.6 5.6c-2 .6-2.5.6-4.4.3m-147-.3-.7-.3.1-8.4.1-8.5h4.5c4.2-.1 4.6-.1 6 .6a9 9 0 0 1 4.2 5.5c1.4 4.7-1.6 10-6.2 11-1.9.4-7 .5-8 .1m22.6-.2c-.5-.4-.5-1.7-.5-8.7v-8.3h5.2c4.4-.1 5 0 5.3.4.3 1-.5 1.3-4.2 1.3-2 0-3.8.1-4 .3-.4.3-.6 4-.2 5 .2.4.8.5 3.8.5 2.1 0 3.7.2 3.8.4v1c-.2.6-.5.6-3.8.6-4.1 0-3.9-.1-4 3 0 3.1-.2 3 4.4 3 3.4 0 4 .1 4.2.6.4 1-.8 1.4-5.3 1.4-3.4 0-4.3 0-4.7-.5m18.1.3a103.7 103.7 0 0 1-.2-17c.1-.3 2-.4 4.5-.4 3.8 0 4.3 0 5.3.7 2.1 1.4 3 3.8 2.1 6.1-.4 1.4-1.8 2.9-2.8 3.2-.4.2.6 2.4 2.3 5 1 1.4 1 2.6.1 2.6-.7 0-1-.3-3.1-3.9l-1.8-2.9h-4.6l-.1 3c-.1 3.4-.5 4.3-1.7 3.6m20-.2q-.5-.3-.3-8.8l.1-8.3h1.2l1.1-.2 2.7 4.5c1.5 2.5 2.8 4.6 3 4.6q.4-.2 1.2-1.5l2.6-4.5c1.8-3 1.9-3 3-3l1.2.1.1 8.4c0 7.2 0 8.4-.4 8.8q-.5.5-1 0c-.4-.3-.5-1.5-.5-7v-6.4l-.7.6c-.4.3-1.7 2.3-2.9 4.3l-2.3 3.8c-.3.3-1.2-.9-3.3-4.5a15 15 0 0 0-2.6-3.7 23 23 0 0 0-.5 6.4c0 4.5-.2 6.4-.5 6.6q-.7.5-1.2-.2m49.6-.2a51 51 0 0 1-.2-8.8v-8l4.3-.2h4.2l1.7 1.6c1.7 1.6 1.7 1.6 1.7 3.6q0 2-.7 3.1c-1.5 2-2.4 2.5-5.9 2.7l-3.2.1-.2 3.2c-.1 2.6-.3 3.2-.7 3.3q-.6 0-1-.6m19.9.3c-.2-.2-.3-4.1-.3-8.8v-8.4h.8q.7-.2 1 .3c.4.6.4 15.3 0 16.4-.4.8-1.2 1.1-1.5.5m35-.2c-.1-.3-.2-4.3-.2-8.8v-8.4l1.2.1c1.2.1 1.4.3 3.6 4 3.3 5.5 3.6 5.7 4.2 4.1q.3-.9 1-1.8l1.5-2.5c2-3.6 2-3.7 3.3-3.8h1.2v8.6c0 7.8 0 8.7-.5 9-1.3.4-1.5-.8-1.5-6.8v-6.1c0-.5-1-.5-1 0l-1.5 2.8-1.5 2.7q0 .4-1 1.4c-.8 1-1 1.1-1.5.7q-.5-.3-.5-.7l-2-3.6-2-3.7q0-.3-.5-.3c-.4 0-.5.9-.5 6.4 0 6.4-.1 7.2-1.2 7.2q-.4 0-.6-.5m25.2.3c-.3-.1-.4-2.2-.4-8.8v-8.6h10v.9l-.2.9h-7.6v5.7h3.4q3.4.2 3.7.6.6.5 0 1-.3.5-3.7.6l-3.4.1v5.7h3.9c3.1.1 3.9.2 4 .7.5 1.1-.3 1.3-4.8 1.3zm17.8-.3c-.1-.3-.2-4.3-.2-8.8v-8.3h1c.7 0 1.2.5 3.7 4.1l3.3 5c1.8 2.7 2.4 3.5 2.7 3.5.2 0 .3-2.5.4-6.2v-6.3h1l.9-.2v8.5c0 7.3 0 8.5-.5 8.9q-.5.6-1.2-.2c-.6-.6-7.7-11-8.3-12.2-.8-1.4-1 0-1 5.9s-.1 6.8-1.2 6.8q-.4 0-.6-.5m25.9.1c-.3-.3-.4-2.5-.4-7.8 0-8.2 0-8-2.4-7.6q-3 .5-2.9-1c.1-.7.2-.7 6.3-.8h6.3v.8c0 1-.6 1.2-2.8 1q-1.7 0-2.1.2c-.3.3-.4 2.2-.4 7.6 0 6.9-.2 8-1 8q-.2 0-.6-.4m11.4.1c-.2-.3.2-1.5 2-6l1.7-4.3 2.2-5.8q.6-1.4 1.5-1.2c1 0 1.1.1 3.6 6.6l2 5c1.8 4.8 1.9 5.1 1.5 5.7q-.3.6-.9.1c-.6-.3-.7-.6-1.6-2.7q-.5-1.3-.8-1.4c-.8-.2-7-.2-7.3 0-.3 0-.8.9-1.3 1.9-.8 2-2 3-2.6 2.1m43.4-.1c-.2-.6 0-1.9.7-2.7l.4-1.2q0-.6.5-1.6l2-5c2.5-6.6 2.5-6.7 3.6-6.7 1 0 1.1 0 3 5.3l1.5 3.8 1.4 3.5 1 2.7q.6 1.9.3 2.1c-.5.6-2-.8-2.5-2.2q-.4-1.2-.8-1.7l-4-.4-3.6-.1-.7 1.4-.7 1.8c0 .4-1.1 1.4-1.6 1.4q-.3 0-.5-.4m25.3-.4a9 9 0 0 1-4.5-5c-.8-2.3-.9-4-.1-5.9a10 10 0 0 1 6.7-6.2c2-.5 5.3.2 7.2 1.5 4.9 3.4 5.1 10.8.4 14.5a8 8 0 0 1-6 2q-2 0-3.7-1m-218.5-1.4c5.5-1.8 6.4-9.4 1.6-12.8-1-.7-1.5-.8-4-.8-2.7 0-2.9 0-4.2 1a7.3 7.3 0 0 0 1.4 12.4c2 .9 2.9 1 5.2.2m225.6-.4a7 7 0 0 0 2.9-2.4c.9-1.3 1-1.7 1-4-.1-2.8-.4-3.4-2.2-5.2-2-2.1-6.7-2.4-9-.5a9 9 0 0 0-3 5.5c0 3 2.2 6.1 5 7 2.2.8 3.3.7 5.3-.4m-313.4.2c4.3-1 6-6.5 3.4-10.8-1.1-1.8-2.6-2.5-5.9-2.6-4.3-.2-4-.6-4 7 0 3.5 0 6.5.2 6.6.3.4 4.7.3 6.3-.2m248-4.3q0-.4-.3-1.5l-1.3-3.3-1.2-2.4c-.5-.6-.3-.8-2.1 3.8-.6 1.5-1 3-.9 3.3.2.4.8.5 2.9.5q2.4 0 2.9-.4m42.9-.6c0-.5-.4-1.7-.8-2.7s-.9-2.3-1-2.9q-.8-2.4-2.2 1.3c-.5 1.2-1 2.7-1.4 3.4q-.4 1-.2 1.6.3.3 2.9.2c2.7 0 2.7 0 2.7-.9m-179.8-2.3c.8-.8 1-1.3 1-2.6s-.2-1.8-1-2.5c-.7-.7-1.2-.9-3.6-1q-2.6-.1-3 .2c-.4.4-.6 6.3-.2 6.6.1.2 1.5.3 3 .3 2.7 0 2.9-.1 3.8-1m-70.1.2c1.2-.5 2.2-2.7 1.7-3.9-.8-2.2-2.6-2.9-6.3-2.5l-2 .3v3c0 1.7.1 3.2.3 3.3.3.4 5.3.3 6.3-.2m243.8-11c0-1 .9-2.2 1.6-2.2q.7 0 1.9.7l1.2.7.5-.7c1-1.5 2-.7 1.4 1.1-.3 1-.5 1.2-1.6 1.2q-1.2 0-1.7-.5t-1-.5a1 1 0 0 0-.8.5c-.3.8-1.5.6-1.5-.3m-28.9-38.4-2.8-.5a34 34 0 0 1-22-14.1c-4-5.5-4.7-7.5-2.9-7.8.7-.2 1.3.5 3.2 4a35 35 0 0 0 13.7 12.8c5.1 2.4 7.4 2.9 13.5 2.9 4.6 0 5.6-.1 7.6-.7q14.5-4.5 23.5-25.8l.8-1.8.6-1.5 1-2.7 1-2.6 1-2.7c3.1-8 3.3-9.3 2-12.3l-1-2.7-1-2.7-1-2.6-1.5-4.2-2-5.9c-.4-.5-.8-1.7-2-5.1l-1.5-4.2-2.6-7.3a160 160 0 0 1-4.5-12.2l-.9-2.5-4-11-2-5.5-.6-1.6a163.7 163.7 0 0 0-2.4-6.5l-1.2-3.2-2.8-7.8-1-2.7-1-2.7c-.5-1.8-3.4-7.3-4.9-9.4a32 32 0 0 0-6.4-6.7q-1.2-.9-1.4-1.3c0-.3 37.3-.3 37.5 0q.1.4-.7 1.2a10 10 0 0 0-3.4 5.2c-.6 2.5-.2 4.7 1.8 10.2l1.5 4.2 1.5 4.1 2.5 7.2 1.6 4.5a76 76 0 0 1 3 8.3q.3.4.5 1.2l.9 2.7 1.4 3.8 1.6 4.7a128 128 0 0 0 4 11.1l2.1 5.7a28 28 0 0 0 2.2 5.8q.3.3.5-.2l.5-1.6.7-2.2 1.5-4.3c.5-1.2 1-2.5 1.9-5.5l1.6-4.8q0-.6.5-1.6a203 203 0 0 0 5-16.1 201 201 0 0 0 5-18.3 82 82 0 0 0 3.7-25.2c.2-.4 19.8-.4 19.8-.1q-.1.3-1.1 1.4a58 58 0 0 0-6 8.9l-2 3.4a383 383 0 0 0-14.6 31l-1.8 4.4c-1.5 3.7-1.8 4.5-3 7a296 296 0 0 0-6 15.3l-1 2.6q-.5 1-.5 1.8 0 .5-.3.8-.4.3-.7 1.3c-.1.6-.6 1.9-1 2.9-1.1 3-1.7 4.3-2.5 6.8l-1.5 4.2-2 5.5-1.5 4a88 88 0 0 1-3 8.3l-1.5 4.2-2.5 6.8a89 89 0 0 1-3.5 9 33 33 0 0 1-2.9 6.5c-.9 2.3-1.5 3.3-4.8 8.5a35 35 0 0 1-17.5 14.6c-3.6 1.2-10.2 2-12 1.4m-551.6-48.8a10 10 0 0 1-2.8-.5l-1.8-.5a29 29 0 0 1-21-19.2 28 28 0 0 1-1.7-12.2 34 34 0 0 1 3.6-17.8q6.9-14.3 25.8-18.3c3.4-.7 11-1 15.2-.6q8.5.9 13.7 5.1c2 1.7 2.3 2.2 1.8 3.2-.5 1.1-1 1-3.2-1-1.7-1.7-2.5-2.1-6.4-3.8-2.2-.9-10.4-.9-13 0a21 21 0 0 0-7.8 5 27 27 0 0 0-7.6 15.7l-.6 4.4c-.5 3.3-.5 6.4.1 11.2q1.5 12.8 7.7 18.2c3 2.7 5.8 3.9 10.9 4.7a22 22 0 0 0 11.6-2.2 35 35 0 0 0 9.7-6.7q1.7-1.8 2.3-1c.5.8 0 2.4-1.5 3.9a68 68 0 0 1-9.2 7.1c-2.9 1.7-8 3.8-11.2 4.6-3.4.9-9.2 1.2-14.6.7m233.5-2a41 41 0 0 1-13.2-3c-.7 0-6.5-3-9.2-4.9-3.1-2-7.8-6.5-10.3-9.8a56 56 0 0 1-10.5-26.2 111 111 0 0 1 .5-23l1-4.5.9-3.3.6-1.5q.5-.7.5-1.2t.5-1.5l1.7-3.5a47 47 0 0 1 25.3-23c8.2-3.1 19.9-4 27.3-2.1a49 49 0 0 1 10.7 4 35 35 0 0 1 16.8 19.8c.8 2.2.8 2.9 0 3.3q-1.3 1-2.1-2a34 34 0 0 0-6.4-11.2 31 31 0 0 0-16.2-9.8 35 35 0 0 0-14 .2 32 32 0 0 0-19.8 18 34 34 0 0 0-2.3 5.6q-1 2.7-1.5 4.7l-.6 2.9a89 89 0 0 0-.9 31.6 62 62 0 0 0 4 14.6 45 45 0 0 0 9.2 14 30 30 0 0 0 19.1 7.8 32 32 0 0 0 29.6-22.5c.4-1.2.6-1.4 1.4-1.4 1 0 1 .1 1 1.2-.1 2.4-2.9 8.3-5.7 11.9A37 37 0 0 1 1034 266c-2.6.6-10 1-14.3.6m154.5 0a36 36 0 0 1-10.6-2l-1.8-.6-2.5-1a46 46 0 0 1-23.3-21.5l-.6-1.3-.9-1.8-1-2.2q-.5-.8-.5-1.4t-.5-1.6a69 69 0 0 1-1.5-35.6 52 52 0 0 1 23-32.4 52 52 0 0 1 49.5-1.6c.4 0 4 2.8 5.6 4.5 4.9 5.1 7 10.3 7.4 19A28 28 0 0 1 1200 214l-2 1c-2.7 1.4-9.6 3-15.3 3.5-2.9.2-11.3-.6-15.7-1.6-7.5-1.7-10.5-3-10.1-4.5q.5-1.6 2.8-.4 1.2.7 1.8.7l1.6.4a45 45 0 0 0 7.9 2c3.3.7 14.7.8 16.8.2l2.7-.6a33 33 0 0 0 8.8-3.2c2.2-.9 5.8-3.6 8.2-6.3 2.6-2.8 4.9-6.7 6-10.5.8-2.7.8-10.6 0-13a25 25 0 0 0-11.3-14.8c-2-1.5-4.2-2.4-8.7-3.6a41 41 0 0 0-15.8.4q-.9 0-1.5.5l-1 .5A30.9 30.9 0 0 0 1160 177a33 33 0 0 0-4.6 8.7q-.5.4-.5 1t-.5 1.7c-1 2.4-2.1 7.3-3 13.3a100 100 0 0 0 1.5 30.2c0 1.7 3.2 10.5 5.2 14a39 39 0 0 0 10.2 11.5c2.6 1.7 5 3 6.1 3.3l2 .6c4.3 1.4 9.8 1.8 13.8.9a35 35 0 0 0 13.3-5.7c5.4-3.8 9.8-9.6 11.9-15.9q.9-2.9 2.5-1.6c1.1.7-1.9 7.8-5.3 12.3-7 9.5-18.2 15-31 15.5zm-312.9-1q-.9-.4.8-1.5c2.6-1.4 5.2-4.5 6.2-7.5.4-1.3.5-5.6.7-26.4l.2-24.9 1.5-1.6c1.7-2 13-13.8 16.7-17.6q2.6-2.6 3-2.3c.1.2.3 13.8.3 36.3l.1 36 .8 1.5q2.2 4 5.2 6c1.7 1 2.4 2 1.5 2zm78.7-.1q-.7-.2-.7-.4l1.5-1c1.6-1 4.5-4 5.4-5.6 1.4-2.8 1.5-4.3 1.5-28.6a232 232 0 0 0-2.2-41.5l-1.1-4c-2.8-9.6-7.7-16.4-14.1-19.6a17 17 0 0 0-9.8-2.2c-1.8.1-3.9.4-4.5.6-5 1.9-9.4 5-14.7 10.4q-4 4.2-4.5 3.8c-.7-.2-.4-2.3.6-3.4 2.5-2.9 11-10.4 11.7-10.4l1.8-1 3.4-1.5 2.7-1 4.8-.6c5.8-.5 12.9 0 17 1.5l2.1.6c3.6.8 10.6 5.1 14.4 8.8a44 44 0 0 1 12.3 23.8c1.3 5.5 1.4 7.2 1.4 33.7 0 24.5 0 26 .6 27.8l1.2 3c.8 1.7 3 4 4.9 5.2q2.4 1.7 1.2 1.7c-13.8.1-36.4 0-37-.1m-391.5-1.2q0-.3.6-.8c1.6-.8 4.8-4 5.7-5.6 2-3.6 1.9.7 1.9-72.4 0-69.8 0-69.6-1.4-72-1.5-2.5-4.8-6-5.9-6-.4 0-.8-1-.6-1.2l51.7-.2c50.2 0 51.6 0 52 .6q.5.7.5 1.5c0 .7.2 1.5 1.5 6.2.3.8.5 1.8.5 2.1l.5 2.2 1 3.8 2.1 8q1.1 3.6-1.5 1.2a95 95 0 0 0-33.8-21.6c-5.7-1.6-5.7-1.6-25.1-1.5l-18.4.1v79.7l7.4.1a285 285 0 0 0 34.1-2 83 83 0 0 0 21.6-5 6 6 0 0 1 2.1-1c.6 0 .7.4.7 9.4 0 7.8-.1 9.3-.5 9.3-.3 0-1.6-.6-3-1.3a14 14 0 0 0-5-1.8 78 78 0 0 0-13.4-2.6c-1.6-.1-3.7-.4-4.6-.6s-2.4-.3-3.4-.3l-7-.5c-3.1-.3-10.2-.5-17.1-.6l-11.9-.1v63.3l1 2c1.1 2.3 3.7 5.2 5.8 6.4q1.3.8 1.2 1.2c-.2.4-39 .4-39.3 0m115 0q0-.4 1.2-1.2c1.8-1 4.1-3.3 5.2-5 1.8-3.2 1.8-1.9 1.8-45.5 0-43.4 0-42.4-1.8-45.4-1-1.7-4.6-5.2-5.8-5.7-1.8-.6-.6-1.4 2.7-1.8l4.9-.7 3.5-.4a113.2 113.2 0 0 1 9.7-1.5l8-1.2.2 17.6c0 11.3.2 17.4.4 17.4q.3 0 .6-.9c0-.5.5-1.8.9-2.8l1-2.7.6-1.5 1-2c2-4.4 6-10 9.6-13.5 2.2-2.1 6.3-5 7.3-5a23 23 0 0 1 5.7-1.1 55 55 0 0 1 20.1 3c1.5.3 4.5 1.3 4.7 1.6s-.3 3.8-1.5 8c-.3.9-.5 2-.5 2.4l-.5 2.2q-.5 1.2-.5 2.2c0 2-1.4 2.6-1.8.7-1-4.4-5.8-10.4-10.3-12.7a17 17 0 0 0-10-2.2c-4.2.2-4.7.3-8.6 2.1a24 24 0 0 0-8.1 7.7 73 73 0 0 0-5.7 11.4l-2 6.1c-2 7.8-2.5 15.3-2.5 39.3 0 17.3.1 19 .7 21.3q1.4 5 5.7 8 2 1.5 2 1.8c-.2.4-37.6.3-37.9 0m414.3 0q0-.4.9-1c1.5-.7 4.2-3.3 5.3-4.9l1.4-3c.6-1.5.6-4.1.6-42.8 0-38.8 0-41.3-.6-42.9a15 15 0 0 0-6-7.7q-3-1.8.8-2.2a79 79 0 0 0 8.1-1.2l4.7-.7c10.8-1.7 14-2.1 14.2-1.9s.4 22.5.5 49.7l.1 49.4 1 1.8c1.2 2.2 3.9 5.1 5.8 6.2q1.3.8 1.2 1.2c-.2.4-37.7.4-38 0m152.4 0q0-.4 1.2-1.2c2-1.2 4.7-4.1 5.8-6.4l1-2v-69.3c0-68.5 0-69.4-.7-70.8a16 16 0 0 0-6.3-7.3q-2.2-1.4.2-1.6a91 91 0 0 0 9.4-1.5l5.1-.6 3.1-.5a87.6 87.6 0 0 0 7.7-1.2c1.2-.3 2.4-.4 2.7-.2.6.2.6 5.4.6 76.1 0 72 0 76 .6 77.6q1.8 5 6.3 7.7 1.3.8 1.2 1.2c0 .1-8 .3-19 .3-10.8 0-18.8-.2-18.9-.3m50.3 0q0-.4 1.4-1.2 5-3 6.4-8.6c.7-2.4.7-4.6.7-69 0-61.7 0-66.8-.6-69a15 15 0 0 0-5.7-8.4q-2.2-1.7-2.2-2.2.3-.3 2-.3c.9 0 2.5-.3 3.5-.5s2.3-.5 3-.5l4-.5 6-1 5.7-.9 4-.4h1.5l.1 76.1c.2 52.4.3 76.5.6 77.3l.9 2.2c.8 1.6 3.8 4.8 5.4 5.7q1.3.8 1.3 1.2c-.1.1-8.1.3-19 .3s-18.9-.2-19-.3m-457.6-42c0-13-.3-22.8-.5-25.2a100 100 0 0 0-4-19.5c-.2-.7-.8-1.9-1.2-2.7-1-2.3-3.8-6.2-5.5-7.7a25 25 0 0 0-6-4c-2.4-.8-6.9-1.6-9.2-1.6a36 36 0 0 0-24.4 11 43 43 0 0 0-6 8.2 34 34 0 0 0-2.8 6.4c-.6 1.7-.9 2-1.5 2q-.7 0-1.1-.5-.6-.6.8-4l1-2.5a42 42 0 0 1 15.7-17.6c3.9-2 5.8-2.8 8.1-3.5l2.9-.9a57 57 0 0 1 19-.1A48 48 0 0 1 826 168a46 46 0 0 1 12.2 14.2 20 20 0 0 1 2.1 4.7 28 28 0 0 1 2.2 6.8l1 4.5c.4 1.5.6 4.7.7 12.7l.2 10.7-1.3 1.4c-1.3 1.6-4.6 5-12 12.7l-6 6.2c-.8 1-1.7 1.8-1.8 1.8s-.3-9.6-.4-21.3m88.5 3.8c-5.3-5.3-6.1-6.2-5.8-6.7.6-1.1 11.6-11.8 12-11.8.6 0 12.4 11.6 12.4 12.1s-12 12.5-12.4 12.5c0 0-2.9-2.7-6.2-6.1m-649.1-11.5a107 107 0 0 0-19.5-16.2 159 159 0 0 0-40.5-20.2l-6.4-2a108 108 0 0 0-13-3.3q-.9-.3-1.8-.3l-2.6-.5a64 64 0 0 0-11.3-2.1c-3.2-.6-6.8-1.1-9.5-1.4l-5.4-.6a271 271 0 0 0-37.3-1.9 282 282 0 0 0-37.3 1.5c-1 0-3.2.2-4.6.5l-4 .5c-.9 0-2.8.2-4.2.5l-3.9.5q-1 .2-1.2.5A104 104 0 0 0 76 182.7a240 240 0 0 0 27.1 15 172.8 172.8 0 0 0 19.9 7.6l2.8.9 3.4 1 3.3.9a215 215 0 0 0 32.4 5.9c2.4.9 19.3 1.2 58.1 1 21.5 0 39.2-.2 39.3-.3m831-77c-2.7-.6-6.1-3.4-7.7-6.4-1-2-1-7.1 0-9.3a12 12 0 0 1 8.7-6.6c3.2-.7 7.3.6 9.9 3.1 1.3 1.2 2.7 4 3.1 6q1 5.4-2.9 9.8a10 10 0 0 1-7.3 3.5c-1.4.1-3.1 0-3.8-.1"/></svg>