<svg xmlns="http://www.w3.org/2000/svg" aria-label="Francielly Costa simbolo" viewBox="0 0 501 544"><title>Francielly Costa simbolo</title><path fill="#fff" fill-rule="evenodd" d="M212.2 543.8c0-.1-.2-22.5-.2-49.8 0-46-.4-142.4-1-215.7l-.2-31.1-20.3-.2c-11.7-.2-21.6-.4-23.3-.6l-5.2-.6a217 217 0 0 1-24.1-3.6l-4.4-1-6.3-1.5a85.1 85.1 0 0 0-5.9-1.5 201 201 0 0 1-20.5-6.9l-7.7-3.2-2.2-.9c-4.7-2-17-8.3-22.2-11.4l-5.3-3.2-1.4-.8a245 245 0 0 1-24.4-18.1 162 162 0 0 1-31.2-35l-4.7-6.5-1.4-1.8q-.3-.1-.3-.9c0-.7.3-.8 2.6-1.3l9.7-2 4.8-1 5.2-1 12.7-2.6 8.3-1.4a192 192 0 0 1 12.9-2q13.6-2.2 38-4a589 589 0 0 1 53.7.4c2.8.2 5.2.4 5.4.6l3.8.5a95 95 0 0 1 11.7 1.5 211 211 0 0 1 26.4 5.5c2.1.4 4.2 1 5.4 1.5q1 .5 1.8.5.7 0 1.6.5.8.4 1.7.5t1.4.5q.7.4 1.5.5t1.5.5c.9.6 2.4.6 2.7 0l.2-1.8a221.3 221.3 0 0 1 4.5-21.4l1-3.5 1.5-4.7A160.3 160.3 0 0 1 272.3 41c2.5-2.3 18.2-13 21.2-14.4q.7-.3 1.3-.7a186.2 186.2 0 0 1 45-18.8l9.8-2.4 2.7-.5a48 48 0 0 1 10.8-2c3.5-.7 10.2-1.4 16.9-1.9a552 552 0 0 1 62 1.9c8.4.6 23.7 2 31.8 3l5.9.6L496 7.7c2 .1 4 .4 4.3.5.7.2.8 1.2.1 1.8q-.5.3-.5.7l-3.5 6.1c-2 3.2-3.5 6-3.5 6A332 332 0 0 1 479.2 45c-1.5 2.3-7.7 10.5-12.2 16.2a269 269 0 0 1-59.6 55.4l-1.7 1.2q-1.2.9-2.4 1.5l-5.2 3.2-1.8 1a204 204 0 0 1-40.6 17.8 96 96 0 0 1-11.9 3c-4.8 1.3-12 2.5-22.5 3.8-4 .5-19.3.8-19.6.5a35 35 0 0 1 1.1-9 35 35 0 0 1 9.2-15.2 35 35 0 0 1 18-9.6 156 156 0 0 0 29.3-8.5l2.5-1 2.7-1.2a180.4 180.4 0 0 0 40-24.8A244 244 0 0 0 428 57.3l4-4.3a171 171 0 0 0 14.6-18c-.3-.3-8.8-1.2-18.4-1.8a293 293 0 0 0-63.7 1L354 36.2l-6.8 1.9a164 164 0 0 0-32.9 13.1l-3 1.8-4.4 2.5-2.5 1.5-3.7 2.6-4 2.9a130.3 130.3 0 0 0-53.1 95.5c-.3 1.6-.4 3-.3 3.1q.3.3 1.5 1 4.4 2.3 14 8.5 3.6 2.2 13.5 9.9c9.7 7.5 21.2 19.4 30.5 31.5l2.4 3 10.5.2a4795 4795 0 0 0 65.8.5 35 35 0 0 1 18.5 8.5 36 36 0 0 1 9 14.7q0 .6.5 1.8t.4 4.1v2.9h-28.4c-15.6-.1-34.9-.2-42.9-.4l-14.6-.2v.9q0 .9.5 1.8l2 4.6 1 2.8 1 2.9 1.5 4a56 56 0 0 1 2.5 8.2l1.9 6.6a38 38 0 0 1 1.2 5.5 48 48 0 0 1 1.9 9.6c2.3 10.2 4 35.3 3.2 47.4l-.7 10.3a96 96 0 0 1-1 9.8c0 1.4-.4 4.3-1.4 9.6l-.6 3.6-1.5 7.9-1 4.5-1 4.4-1 3.5-2 7.5a68 68 0 0 1-2.6 7.9L326 416l-1 2.7-1 2.6-1 2.7-.6 1.5-1.9 4.5-1.2 2.5q-.3.3-.3.8a314 314 0 0 1-9.9 19.7 281 281 0 0 1-17.6 26.8l-3.4 4.4a196.2 196.2 0 0 1-59.5 50.4l-6.4 3.9-2 1.2-2 1.2-2.6 1.6q-2.9 1.8-3.4 1.3m38.5-65.5a197 197 0 0 0 28.2-36.6l2.8-5c2-3.5 7-13.4 8.6-17l4.3-10.5a87 87 0 0 0 3.9-11.3 144 144 0 0 0 4.8-17.2l.6-2.5c.2-1.2.8-4.4 1.6-7.7.3-1.3.5-3 .5-3.7l.3-2.5.7-3.8.6-5.3c1.7-13.1 1.7-31.7 0-44.4l-.6-5.1a119.4 119.4 0 0 0-4-20.2 96 96 0 0 0-4.5-14.9l-1-2.6a156 156 0 0 0-8-17.7c-2-3.7.8-3.3-24.3-3.2h-22v38.2c0 47.9.8 198.4 1 198.8a30 30 0 0 0 6.5-5.8m11.6-263.6a107 107 0 0 0-19.5-16.2 159 159 0 0 0-40.5-20.2l-6.4-2a108 108 0 0 0-13-3.3q-.9-.3-1.8-.3l-2.6-.5a64 64 0 0 0-11.3-2.1c-3.2-.6-6.8-1.1-9.5-1.4l-5.4-.6a271 271 0 0 0-37.3-1.9 282 282 0 0 0-37.3 1.5c-1 0-3.2.2-4.6.5l-4 .5c-.9 0-2.8.2-4.2.5l-3.9.5q-1 .2-1.2.5A104 104 0 0 0 76 182.7a240 240 0 0 0 27.1 15 172.8 172.8 0 0 0 19.9 7.6l2.8.9 3.4 1 3.3.9a215 215 0 0 0 32.4 5.9c2.4.9 19.3 1.2 58.1 1 21.5 0 39.2-.2 39.3-.3"/></svg>