<svg xmlns="http://www.w3.org/2000/svg" viewBox="0 0 501.0 544.0" role="img" aria-label="Francielly Costa"><title>Francielly Costa</title><path d="M212.23,543.80C212.13,543.67 212.03,521.30 212.03,494.03C212.00,448.00 211.57,351.57 211.07,278.33L210.83,247.17L190.50,246.97C178.83,246.83 168.90,246.57 167.17,246.37C165.53,246.17 163.20,245.90 162.00,245.80C159.93,245.67 157.23,245.30 148.83,244.13C146.80,243.83 144.30,243.40 143.27,243.13C142.20,242.87 140.97,242.67 140.47,242.67C140.00,242.67 138.83,242.47 137.90,242.20C136.93,241.97 134.97,241.50 133.50,241.20C132.03,240.90 130.13,240.43 129.30,240.17C128.43,239.90 127.50,239.67 127.20,239.67C126.87,239.67 125.93,239.47 125.07,239.20C124.20,238.93 122.53,238.47 121.33,238.17C119.27,237.60 114.23,236.03 112.17,235.30C111.63,235.10 110.70,234.80 110.17,234.67C108.37,234.17 103.60,232.43 100.83,231.30C100.47,231.17 98.80,230.50 97.17,229.83C95.53,229.17 93.67,228.40 93.07,228.13C92.50,227.87 91.50,227.47 90.93,227.20C86.23,225.20 73.97,218.90 68.73,215.83C66.83,214.70 64.13,213.10 63.37,212.60C62.90,212.27 62.30,211.90 62.03,211.77C60.43,211.00 49.83,203.50 44.70,199.50C42.17,197.53 41.63,197.10 37.63,193.67C27.53,184.97 18.63,175.60 12.67,167.33C11.13,165.23 8.30,161.33 6.37,158.67C4.43,156.00 2.37,153.07 1.73,152.17C1.10,151.27 0.47,150.47 0.30,150.40C0.13,150.33 0.00,149.93 0.00,149.50C0.00,148.80 0.27,148.67 2.60,148.20C4.00,147.90 5.83,147.50 6.67,147.30C7.50,147.07 8.63,146.83 9.17,146.77C9.70,146.70 11.13,146.43 12.33,146.17C13.53,145.93 15.67,145.47 17.07,145.20C18.50,144.90 20.83,144.43 22.27,144.13C29.40,142.67 31.97,142.17 35.00,141.63C36.70,141.37 39.63,140.83 43.33,140.17C46.67,139.57 50.57,138.93 52.00,138.77C52.63,138.70 54.53,138.43 56.17,138.17C65.37,136.73 77.77,135.43 94.17,134.17C101.90,133.57 133.50,133.47 139.33,134.03C141.27,134.20 145.10,134.47 147.90,134.63C150.70,134.80 153.13,135.03 153.33,135.17C153.53,135.30 155.23,135.50 157.10,135.67C158.97,135.80 161.63,136.10 163.00,136.30C164.37,136.53 167.00,136.93 168.83,137.20C172.07,137.70 175.20,138.23 179.00,139.00C180.00,139.20 181.37,139.43 182.00,139.53C182.63,139.63 183.93,139.90 184.83,140.17C185.73,140.40 187.70,140.87 189.17,141.17C190.63,141.50 192.30,141.90 192.83,142.07C193.37,142.27 194.43,142.53 195.17,142.70C197.33,143.13 199.43,143.70 200.60,144.20C201.20,144.47 202.03,144.67 202.43,144.67C202.83,144.70 203.53,144.90 204.00,145.17C204.47,145.43 205.20,145.67 205.67,145.67C206.13,145.67 206.80,145.90 207.13,146.17C207.50,146.43 208.17,146.67 208.63,146.67C209.10,146.67 209.80,146.90 210.13,147.17C211.00,147.83 212.53,147.80 212.80,147.13C212.90,146.83 213.00,146.07 213.00,145.40C213.00,144.73 213.23,142.97 213.53,141.50C214.53,136.37 215.03,133.83 215.37,132.50C215.57,131.77 215.83,130.57 215.97,129.83C216.23,128.47 216.70,126.67 217.47,124.00C217.73,123.17 218.17,121.60 218.50,120.50C218.83,119.40 219.23,118.13 219.43,117.67C219.60,117.20 219.87,116.37 220.03,115.83C220.57,113.83 222.60,108.30 224.33,104.17C228.70,93.83 234.50,83.40 241.07,74.17C241.60,73.43 242.27,72.47 242.57,72.00C243.13,71.20 245.63,68.00 248.47,64.50C253.73,58.03 265.17,46.60 270.33,42.67C271.17,42.03 272.03,41.30 272.30,41.07C274.80,38.67 290.50,27.97 293.50,26.63C293.87,26.47 294.47,26.13 294.83,25.93C296.73,24.70 298.47,23.77 303.23,21.37C311.43,17.27 313.83,16.23 324.50,12.10C325.23,11.83 326.33,11.40 326.93,11.13C327.53,10.87 328.23,10.67 328.50,10.67C328.77,10.67 329.47,10.47 330.07,10.20C331.20,9.73 336.93,7.97 339.83,7.17C342.10,6.57 344.80,5.83 347.03,5.20C348.07,4.90 349.23,4.67 349.63,4.67C350.03,4.67 351.20,4.47 352.27,4.20C356.73,3.10 358.90,2.67 359.73,2.67C360.23,2.67 361.73,2.47 363.07,2.20C366.57,1.50 373.30,0.77 380.00,0.30C388.97,-0.30 417.50,0.27 430.67,1.30C433.33,1.50 438.43,1.90 442.00,2.20C450.43,2.83 465.73,4.27 473.83,5.17C476.23,5.43 478.83,5.73 479.67,5.80C481.23,5.97 484.93,6.40 489.67,7.00C491.23,7.20 494.13,7.50 496.13,7.67C498.10,7.83 500.03,8.07 500.37,8.17C501.13,8.43 501.20,9.43 500.50,10.00C500.23,10.23 500.00,10.53 500.00,10.67C500.00,10.80 498.43,13.57 496.50,16.80C494.57,20.03 493.00,22.77 493.00,22.83C493.00,23.20 485.57,35.30 482.70,39.63C480.93,42.27 479.33,44.67 479.17,44.93C477.73,47.17 471.53,55.43 467.03,61.13C452.27,79.80 433.13,98.30 415.70,110.73C412.53,113.00 408.07,116.10 407.40,116.50C407.10,116.70 406.30,117.23 405.67,117.70C405.03,118.20 403.97,118.87 403.33,119.23C402.70,119.57 401.53,120.27 400.73,120.77C399.97,121.27 398.77,122.00 398.07,122.37C397.40,122.73 396.60,123.17 396.33,123.33C392.00,126.07 380.53,131.77 373.50,134.67C370.73,135.80 368.00,136.93 367.40,137.20C366.80,137.47 366.03,137.67 365.67,137.67C365.33,137.67 364.97,137.80 364.87,137.93C364.77,138.10 362.93,138.80 360.77,139.47C358.60,140.17 356.30,140.93 355.67,141.17C354.27,141.67 350.93,142.57 347.17,143.43C346.07,143.70 344.57,144.07 343.83,144.27C338.97,145.53 331.77,146.73 321.33,148.03C317.37,148.50 302.03,148.83 301.67,148.47C301.33,148.10 302.13,141.80 302.80,139.50C304.53,133.63 307.57,128.67 312.03,124.27C317.17,119.23 323.43,115.90 330.00,114.67C337.07,113.37 348.00,110.53 351.17,109.20C351.73,108.93 352.67,108.63 353.23,108.53C353.83,108.40 354.40,108.13 354.50,107.97C354.63,107.80 355.00,107.67 355.40,107.67C355.77,107.67 356.47,107.47 356.93,107.20C357.43,106.93 358.50,106.50 359.33,106.17C360.17,105.87 361.27,105.40 361.83,105.17C362.40,104.90 363.60,104.40 364.50,104.00C366.47,103.17 375.63,98.57 377.33,97.60C389.37,90.63 394.20,87.37 404.43,79.23C411.77,73.43 421.30,64.57 428.13,57.30C429.40,55.93 431.20,54.00 432.13,53.00C433.70,51.37 435.07,49.77 439.37,44.67C442.80,40.57 446.93,35.13 446.73,34.93C446.43,34.67 437.87,33.83 428.33,33.17C402.97,31.40 381.33,31.40 371.43,33.17C369.93,33.43 368.23,33.67 367.67,33.67C367.10,33.67 365.70,33.87 364.57,34.13C362.23,34.67 359.23,35.27 357.00,35.67C356.17,35.83 354.83,36.13 354.00,36.33C350.17,37.33 349.03,37.63 347.17,38.17C336.50,41.20 327.97,44.53 317.50,49.70C316.03,50.43 314.60,51.17 314.33,51.33C314.07,51.50 312.70,52.27 311.33,53.07C309.97,53.87 308.60,54.63 308.33,54.77C308.07,54.90 307.43,55.27 306.93,55.60C306.47,55.90 305.33,56.60 304.43,57.13C303.57,57.67 301.87,58.80 300.67,59.67C299.47,60.57 297.67,61.83 296.63,62.57C295.60,63.27 294.03,64.43 293.13,65.17C279.87,76.27 272.80,83.97 264.80,96.00C261.83,100.47 260.37,103.00 257.87,107.93C256.07,111.47 254.67,114.57 253.67,117.00C253.27,118.00 252.73,119.30 252.50,119.83C251.97,120.93 249.27,129.17 248.50,131.90C247.10,136.93 246.30,140.07 246.00,142.00C245.87,142.83 245.57,144.40 245.33,145.50C244.27,151.07 244.00,152.63 244.00,153.83C244.00,154.57 243.80,156.47 243.53,158.07C243.30,159.67 243.20,161.10 243.30,161.23C243.40,161.37 244.10,161.83 244.83,162.23C247.80,163.83 252.30,166.53 258.83,170.67C261.20,172.13 265.70,175.47 272.27,180.57C282.00,188.13 293.53,200.03 302.83,212.13L305.17,215.17L315.67,215.33C321.43,215.43 338.47,215.53 353.47,215.60C368.50,215.63 381.10,215.73 381.47,215.80C386.40,216.73 390.53,217.87 390.87,218.37C390.97,218.53 391.23,218.67 391.50,218.67C392.43,218.67 397.50,222.00 400.03,224.30C402.73,226.77 406.30,231.73 407.47,234.67C407.80,235.50 408.27,236.67 408.53,237.27C408.80,237.87 409.00,238.63 409.00,238.97C409.00,239.30 409.23,240.13 409.50,240.80C409.87,241.67 410.00,242.90 409.93,244.93L409.83,247.80L381.50,247.73C365.93,247.70 346.60,247.57 338.60,247.43L324.00,247.23L324.00,248.10C324.00,248.57 324.20,249.37 324.47,249.90C325.10,251.13 325.83,252.83 326.43,254.50C326.70,255.23 327.20,256.50 327.50,257.33C327.80,258.17 328.30,259.43 328.57,260.17C328.83,260.90 329.27,262.00 329.53,262.60C329.80,263.20 330.00,263.90 330.00,264.17C330.00,264.43 330.20,265.13 330.47,265.73C330.70,266.33 331.17,267.73 331.50,268.83C331.83,269.93 332.27,271.50 332.50,272.33C332.97,273.87 333.63,276.30 334.37,279.00C334.60,279.83 334.90,281.10 335.03,281.83C335.17,282.57 335.43,283.77 335.63,284.50C336.47,287.83 337.00,290.57 337.00,291.27C337.00,291.70 337.20,292.97 337.47,294.10C339.83,304.33 341.53,329.40 340.70,341.50C340.47,344.60 340.17,349.27 340.00,351.83C339.83,354.40 339.53,357.30 339.37,358.30C339.17,359.27 339.00,360.77 339.00,361.60C339.00,362.97 338.57,365.93 337.60,371.17C337.40,372.27 337.13,373.93 337.00,374.83C336.70,376.93 336.07,380.30 335.50,382.67C335.27,383.67 334.80,385.70 334.50,387.17C334.20,388.63 333.73,390.63 333.47,391.60C333.20,392.53 332.80,394.13 332.53,395.07C332.07,396.90 331.40,399.27 330.47,402.60C330.17,403.63 329.73,405.03 329.50,405.67C329.27,406.30 328.53,408.50 327.90,410.50C327.23,412.50 326.37,415.00 326.00,416.00C325.60,417.00 325.17,418.20 325.00,418.67C324.83,419.13 324.40,420.33 324.00,421.33C323.60,422.33 323.17,423.57 323.00,424.03C322.87,424.50 322.60,425.17 322.40,425.53C322.00,426.30 321.63,427.20 320.50,430.00C320.00,431.20 319.47,432.30 319.30,432.50C319.13,432.67 319.00,433.03 319.00,433.33C319.00,433.83 311.37,449.17 310.07,451.33C309.67,451.97 309.23,452.73 309.10,453.00C308.67,454.03 302.83,463.63 300.73,466.83C298.10,470.87 294.27,476.23 291.53,479.80C290.40,481.23 288.87,483.23 288.10,484.23C285.40,487.77 276.30,497.90 272.43,501.70C263.00,510.97 253.83,518.50 243.70,525.30C239.77,527.93 233.80,531.67 233.50,531.67C233.43,531.67 232.80,532.07 232.10,532.53C231.40,533.00 230.53,533.53 230.17,533.70C229.80,533.87 229.10,534.27 228.60,534.60C227.37,535.40 223.00,538.03 222.20,538.47C221.80,538.67 220.90,539.23 220.17,539.67C219.40,540.13 218.50,540.67 218.17,540.90C217.80,541.13 216.67,541.80 215.60,542.47C213.53,543.73 212.57,544.10 212.23,543.80ZM250.67,478.33C255.47,473.57 262.13,465.83 266.90,459.50C270.73,454.37 277.00,445.10 278.90,441.67C279.27,441.03 280.53,438.77 281.73,436.67C283.70,433.17 288.67,423.27 290.27,419.67C291.13,417.67 293.93,410.83 294.57,409.17C297.07,402.57 298.00,399.93 298.00,399.47C298.00,399.23 298.20,398.53 298.47,397.93C299.23,396.13 301.20,389.27 302.43,384.17C302.70,383.07 303.10,381.50 303.33,380.67C303.53,379.83 303.80,378.73 303.87,378.17C304.07,377.00 304.73,373.80 305.47,370.50C305.77,369.23 306.00,367.57 306.00,366.83C306.00,366.10 306.17,364.97 306.33,364.33C306.53,363.70 306.80,361.97 306.97,360.50C307.13,359.03 307.43,356.63 307.63,355.17C309.30,342.10 309.30,323.47 307.63,310.83C307.43,309.37 307.17,307.03 307.00,305.67C306.77,303.20 306.40,301.07 305.47,296.40C304.53,291.60 303.90,288.80 303.60,287.83C303.40,287.30 303.13,286.23 303.00,285.50C302.43,282.63 300.10,274.80 299.47,273.60C299.20,273.13 299.00,272.50 299.00,272.20C299.00,271.93 298.80,271.20 298.53,270.60C298.27,270.00 297.80,268.83 297.50,268.00C296.60,265.57 295.17,262.23 293.07,257.67C291.70,254.67 290.80,252.87 289.47,250.33C287.47,246.60 290.33,246.97 265.20,247.07L243.17,247.17L243.20,285.33C243.20,333.20 244.00,483.73 244.23,484.10C244.40,484.37 246.63,482.37 250.67,478.33ZM262.27,214.70C262.50,214.03 250.97,204.10 246.50,201.10C245.60,200.50 243.93,199.33 242.83,198.50C234.97,192.67 220.60,185.03 210.17,181.10C209.43,180.83 208.33,180.40 207.73,180.13C207.13,179.87 206.37,179.67 206.07,179.67C205.73,179.67 205.33,179.53 205.13,179.40C204.97,179.23 203.70,178.77 202.33,178.33C200.00,177.63 199.20,177.40 195.93,176.37C193.23,175.50 187.80,174.13 185.33,173.70C184.50,173.57 183.40,173.27 182.90,173.03C182.37,172.83 181.57,172.67 181.10,172.67C180.60,172.67 179.47,172.47 178.53,172.20C176.37,171.60 173.37,171.00 171.00,170.67C170.00,170.57 168.27,170.27 167.17,170.07C164.03,169.50 160.40,168.97 157.67,168.67C156.30,168.53 153.90,168.23 152.33,168.07C141.70,166.70 132.10,166.20 115.00,166.20C99.40,166.17 91.03,166.43 84.10,167.20C81.67,167.47 78.80,167.67 77.70,167.67C76.63,167.67 74.53,167.90 73.10,168.17C71.67,168.43 69.83,168.67 69.03,168.67C68.20,168.67 66.33,168.90 64.87,169.17C63.37,169.43 61.63,169.70 61.00,169.73C60.37,169.80 59.83,170.00 59.83,170.23C59.83,170.90 70.63,179.33 74.27,181.50C74.57,181.67 75.37,182.23 76.00,182.70C77.53,183.80 84.53,188.03 89.17,190.63C92.60,192.57 102.73,197.67 103.13,197.67C103.23,197.67 104.27,198.10 105.40,198.63C108.43,200.00 113.30,201.97 116.67,203.17C119.53,204.17 120.23,204.40 121.17,204.67C121.70,204.80 122.53,205.07 123.00,205.27C123.47,205.43 124.73,205.87 125.83,206.17C126.93,206.50 128.43,206.97 129.17,207.20C129.90,207.40 131.40,207.83 132.50,208.10C139.37,209.83 141.57,210.37 145.67,211.17C147.23,211.47 149.27,211.87 150.17,212.07C151.07,212.23 152.97,212.53 154.33,212.70C155.70,212.83 157.50,213.13 158.33,213.30C159.17,213.50 160.73,213.63 161.87,213.67C163.00,213.67 164.33,213.83 164.87,214.00C167.33,214.87 184.20,215.17 223.00,215.07C244.53,215.00 262.20,214.83 262.27,214.70Z" fill="#B76E79" fill-rule="evenodd"/></svg>